<?xml version="1.0" encoding="UTF-8"?>
<svg xmlns="http://www.w3.org/2000/svg" xmlns:xlink="http://www.w3.org/1999/xlink" width="22pt" height="21pt" viewBox="0 0 22 21" version="1.1">
<g id="surface1">
<path style=" stroke:none;fill-rule:evenodd;fill:rgb(80.392157%,80.392157%,80.392157%);fill-opacity:1;" d="M 10.488281 0.113281 C 10.488281 0.121094 10.503906 0.160156 10.523438 0.195312 C 10.542969 0.234375 10.558594 0.269531 10.554688 0.277344 C 10.550781 0.289062 10.558594 0.292969 10.574219 0.292969 C 10.585938 0.292969 10.589844 0.28125 10.582031 0.261719 C 10.578125 0.242188 10.570312 0.21875 10.570312 0.210938 C 10.570312 0.203125 10.550781 0.175781 10.527344 0.148438 C 10.507812 0.121094 10.488281 0.105469 10.488281 0.113281 M 10.320312 0.234375 C 10.308594 0.269531 10.300781 0.304688 10.308594 0.308594 C 10.3125 0.3125 10.324219 0.289062 10.339844 0.25 C 10.351562 0.210938 10.359375 0.179688 10.355469 0.175781 C 10.347656 0.167969 10.335938 0.195312 10.320312 0.234375 M 10.1875 0.539062 C 10.164062 0.597656 10.175781 0.621094 10.207031 0.578125 C 10.222656 0.558594 10.234375 0.53125 10.234375 0.523438 C 10.234375 0.492188 10.199219 0.503906 10.1875 0.539062 M 10.9375 1.144531 C 10.945312 1.167969 10.953125 1.199219 10.957031 1.214844 C 10.960938 1.253906 10.988281 1.273438 10.988281 1.238281 C 10.988281 1.222656 10.972656 1.1875 10.957031 1.15625 C 10.933594 1.121094 10.929688 1.117188 10.9375 1.144531 M 9.851562 1.378906 C 9.832031 1.425781 9.855469 1.449219 9.882812 1.410156 C 9.90625 1.371094 9.90625 1.347656 9.882812 1.347656 C 9.871094 1.347656 9.859375 1.363281 9.851562 1.378906 M 11.054688 1.433594 C 11.050781 1.441406 11.066406 1.476562 11.082031 1.515625 C 11.101562 1.554688 11.113281 1.574219 11.113281 1.554688 C 11.113281 1.527344 11.054688 1.40625 11.054688 1.433594 M 9.808594 1.484375 C 9.789062 1.535156 9.792969 1.558594 9.816406 1.546875 C 9.828125 1.539062 9.835938 1.523438 9.828125 1.515625 C 9.820312 1.503906 9.828125 1.492188 9.84375 1.488281 C 9.859375 1.484375 9.859375 1.476562 9.84375 1.464844 C 9.832031 1.457031 9.816406 1.464844 9.808594 1.484375 M 11.179688 1.765625 C 11.179688 1.777344 11.1875 1.789062 11.199219 1.789062 C 11.210938 1.789062 11.21875 1.796875 11.210938 1.808594 C 11.203125 1.816406 11.207031 1.832031 11.21875 1.839844 C 11.242188 1.855469 11.246094 1.828125 11.226562 1.777344 C 11.214844 1.742188 11.179688 1.734375 11.179688 1.765625 M 9.59375 2.050781 C 9.5625 2.085938 9.558594 2.101562 9.585938 2.101562 C 9.601562 2.101562 9.636719 2.039062 9.625 2.027344 C 9.621094 2.027344 9.605469 2.035156 9.59375 2.050781 M 11.304688 2.023438 C 11.304688 2.03125 11.316406 2.066406 11.335938 2.105469 C 11.351562 2.144531 11.363281 2.164062 11.363281 2.144531 C 11.363281 2.113281 11.304688 1.996094 11.304688 2.023438 M 9.476562 2.320312 C 9.46875 2.34375 9.464844 2.367188 9.472656 2.371094 C 9.492188 2.390625 9.507812 2.359375 9.5 2.320312 C 9.492188 2.285156 9.492188 2.285156 9.476562 2.320312 M 11.4375 2.367188 C 11.449219 2.390625 11.460938 2.425781 11.464844 2.445312 C 11.472656 2.464844 11.484375 2.480469 11.496094 2.480469 C 11.527344 2.480469 11.515625 2.425781 11.46875 2.375 C 11.429688 2.332031 11.425781 2.332031 11.4375 2.367188 M 11.535156 2.589844 C 11.546875 2.613281 11.5625 2.628906 11.566406 2.625 C 11.582031 2.609375 11.550781 2.546875 11.53125 2.546875 C 11.519531 2.546875 11.523438 2.566406 11.535156 2.589844 M 11.578125 2.652344 C 11.574219 2.660156 11.589844 2.699219 11.605469 2.738281 C 11.621094 2.777344 11.636719 2.792969 11.636719 2.777344 C 11.636719 2.746094 11.578125 2.625 11.578125 2.652344 M 9.222656 2.9375 C 9.203125 2.984375 9.226562 3.003906 9.253906 2.964844 C 9.277344 2.925781 9.277344 2.902344 9.253906 2.902344 C 9.242188 2.902344 9.230469 2.917969 9.222656 2.9375 M 11.710938 2.996094 C 11.71875 3.019531 11.730469 3.054688 11.738281 3.074219 C 11.742188 3.097656 11.757812 3.113281 11.765625 3.113281 C 11.792969 3.113281 11.789062 3.101562 11.742188 3.023438 C 11.714844 2.984375 11.703125 2.972656 11.710938 2.996094 M 9.179688 3.042969 C 9.164062 3.085938 9.164062 3.09375 9.191406 3.09375 C 9.203125 3.09375 9.207031 3.082031 9.199219 3.074219 C 9.195312 3.0625 9.199219 3.050781 9.214844 3.042969 C 9.230469 3.039062 9.234375 3.03125 9.214844 3.023438 C 9.203125 3.015625 9.1875 3.023438 9.179688 3.042969 M 11.800781 3.21875 C 11.804688 3.242188 11.820312 3.261719 11.828125 3.261719 C 11.851562 3.261719 11.851562 3.253906 11.835938 3.210938 C 11.816406 3.160156 11.785156 3.167969 11.800781 3.21875 M 11.847656 3.292969 C 11.847656 3.304688 11.863281 3.335938 11.878906 3.363281 C 11.894531 3.394531 11.910156 3.410156 11.910156 3.398438 C 11.910156 3.386719 11.894531 3.351562 11.878906 3.324219 C 11.863281 3.292969 11.847656 3.28125 11.847656 3.292969 M 8.953125 3.601562 C 8.914062 3.648438 8.90625 3.703125 8.933594 3.703125 C 8.949219 3.703125 9.003906 3.574219 8.996094 3.5625 C 8.992188 3.558594 8.972656 3.578125 8.953125 3.601562 M 12.035156 3.757812 C 12.035156 3.789062 12.074219 3.835938 12.089844 3.824219 C 12.097656 3.816406 12.089844 3.792969 12.070312 3.773438 C 12.050781 3.757812 12.035156 3.75 12.035156 3.757812 M 12.097656 3.910156 C 12.097656 3.921875 12.113281 3.945312 12.128906 3.960938 C 12.144531 3.976562 12.15625 3.996094 12.148438 4.003906 C 12.144531 4.007812 12.148438 4.019531 12.160156 4.027344 C 12.191406 4.046875 12.1875 4.011719 12.160156 3.945312 C 12.132812 3.890625 12.097656 3.871094 12.097656 3.910156 M 8.699219 4.226562 C 8.691406 4.25 8.675781 4.269531 8.664062 4.269531 C 8.652344 4.269531 8.644531 4.285156 8.644531 4.300781 C 8.644531 4.320312 8.652344 4.332031 8.660156 4.332031 C 8.679688 4.332031 8.734375 4.203125 8.71875 4.191406 C 8.714844 4.1875 8.707031 4.203125 8.699219 4.226562 M 8.59375 4.429688 C 8.578125 4.472656 8.578125 4.480469 8.601562 4.480469 C 8.609375 4.480469 8.625 4.460938 8.628906 4.4375 C 8.644531 4.386719 8.613281 4.378906 8.59375 4.429688 M 8.542969 4.554688 C 8.507812 4.632812 8.515625 4.648438 8.554688 4.578125 C 8.570312 4.546875 8.582031 4.515625 8.578125 4.507812 C 8.570312 4.503906 8.558594 4.523438 8.542969 4.554688 M 12.371094 4.519531 C 12.371094 4.53125 12.382812 4.554688 12.402344 4.570312 C 12.417969 4.585938 12.425781 4.605469 12.417969 4.613281 C 12.410156 4.621094 12.417969 4.628906 12.429688 4.628906 C 12.460938 4.628906 12.460938 4.621094 12.429688 4.554688 C 12.40625 4.503906 12.371094 4.480469 12.371094 4.519531 M 12.457031 4.691406 C 12.46875 4.714844 12.484375 4.730469 12.488281 4.726562 C 12.503906 4.710938 12.472656 4.648438 12.453125 4.648438 C 12.441406 4.648438 12.441406 4.667969 12.457031 4.691406 M 8.4375 4.808594 C 8.402344 4.882812 8.410156 4.902344 8.449219 4.832031 C 8.464844 4.796875 8.476562 4.765625 8.472656 4.761719 C 8.46875 4.757812 8.453125 4.777344 8.4375 4.808594 M 12.519531 4.804688 C 12.519531 4.816406 12.53125 4.851562 12.550781 4.878906 C 12.566406 4.910156 12.578125 4.921875 12.578125 4.910156 C 12.578125 4.898438 12.566406 4.867188 12.550781 4.835938 C 12.53125 4.808594 12.519531 4.792969 12.519531 4.804688 M 8.324219 5.039062 C 8.304688 5.085938 8.328125 5.109375 8.351562 5.066406 C 8.378906 5.027344 8.378906 5.003906 8.355469 5.003906 C 8.34375 5.003906 8.328125 5.019531 8.324219 5.039062 M 12.644531 5.09375 C 12.644531 5.105469 12.722656 5.289062 12.742188 5.320312 C 12.746094 5.324219 12.753906 5.324219 12.757812 5.316406 C 12.773438 5.304688 12.726562 5.175781 12.707031 5.175781 C 12.699219 5.175781 12.679688 5.152344 12.667969 5.125 C 12.65625 5.101562 12.644531 5.085938 12.644531 5.09375 M 8.273438 5.164062 C 8.242188 5.230469 8.242188 5.238281 8.269531 5.238281 C 8.28125 5.238281 8.285156 5.226562 8.277344 5.214844 C 8.273438 5.203125 8.273438 5.195312 8.285156 5.195312 C 8.292969 5.195312 8.300781 5.175781 8.304688 5.152344 C 8.308594 5.097656 8.300781 5.101562 8.273438 5.164062 M 8.136719 5.480469 C 8.117188 5.519531 8.101562 5.566406 8.101562 5.578125 C 8.101562 5.59375 8.121094 5.5625 8.144531 5.511719 C 8.191406 5.402344 8.1875 5.375 8.136719 5.480469 M 12.8125 5.4375 C 12.8125 5.449219 12.824219 5.480469 12.84375 5.511719 C 12.859375 5.539062 12.871094 5.554688 12.871094 5.542969 C 12.871094 5.53125 12.859375 5.496094 12.84375 5.46875 C 12.824219 5.441406 12.8125 5.425781 12.8125 5.4375 M 12.875 5.585938 C 12.875 5.597656 12.886719 5.628906 12.90625 5.65625 C 12.921875 5.6875 12.933594 5.699219 12.933594 5.6875 C 12.933594 5.679688 12.921875 5.644531 12.90625 5.617188 C 12.886719 5.585938 12.875 5.574219 12.875 5.585938 M 7.984375 5.785156 C 7.933594 5.898438 7.960938 5.917969 8.015625 5.808594 C 8.0625 5.714844 8.066406 5.699219 8.042969 5.699219 C 8.03125 5.699219 8.007812 5.738281 7.984375 5.785156 M 13.035156 5.945312 C 13.082031 6.054688 13.152344 6.183594 13.160156 6.175781 C 13.175781 6.160156 13.058594 5.910156 13.039062 5.910156 C 13.027344 5.910156 13.027344 5.925781 13.035156 5.945312 M 7.894531 6.015625 C 7.890625 6.035156 7.921875 6.078125 7.960938 6.109375 L 8.027344 6.171875 L 7.972656 6.109375 C 7.941406 6.074219 7.914062 6.03125 7.90625 6.015625 C 7.894531 5.988281 7.894531 5.988281 7.894531 6.015625 M 8.125 6.285156 C 8.136719 6.324219 8.667969 6.859375 8.683594 6.847656 C 8.691406 6.839844 8.566406 6.703125 8.40625 6.546875 C 8.246094 6.386719 8.121094 6.269531 8.125 6.285156 M 13.230469 6.339844 C 13.230469 6.351562 13.25 6.394531 13.269531 6.4375 C 13.292969 6.476562 13.3125 6.5 13.3125 6.488281 C 13.3125 6.476562 13.292969 6.433594 13.269531 6.394531 C 13.25 6.351562 13.230469 6.328125 13.230469 6.339844 M 13.332031 6.570312 C 13.332031 6.597656 13.40625 6.730469 13.421875 6.730469 C 13.445312 6.730469 13.445312 6.722656 13.402344 6.636719 C 13.375 6.574219 13.332031 6.535156 13.332031 6.570312 M 7.578125 6.664062 C 7.578125 6.675781 7.597656 6.683594 7.617188 6.683594 C 7.640625 6.679688 7.652344 6.671875 7.648438 6.664062 C 7.632812 6.640625 7.578125 6.640625 7.578125 6.664062 M 7.703125 6.726562 C 7.703125 6.746094 7.75 6.792969 7.769531 6.792969 C 7.800781 6.792969 7.785156 6.753906 7.746094 6.730469 C 7.722656 6.71875 7.703125 6.714844 7.703125 6.726562 M 7.808594 6.824219 C 7.808594 6.828125 7.847656 6.855469 7.898438 6.886719 L 7.984375 6.945312 L 7.914062 6.878906 C 7.847656 6.820312 7.808594 6.800781 7.808594 6.824219 M 8.875 7.03125 C 8.9375 7.097656 8.992188 7.144531 8.996094 7.140625 C 9.011719 7.125 8.980469 7.09375 8.871094 7 L 8.761719 6.914062 L 8.875 7.03125 M 7.453125 6.957031 C 7.453125 6.96875 7.433594 7 7.410156 7.023438 C 7.367188 7.074219 7.355469 7.109375 7.386719 7.109375 C 7.40625 7.109375 7.476562 6.960938 7.464844 6.945312 C 7.457031 6.9375 7.453125 6.941406 7.453125 6.957031 M 7.996094 6.960938 C 7.996094 6.972656 8.003906 6.984375 8.015625 6.984375 C 8.027344 6.984375 8.046875 6.996094 8.0625 7.011719 C 8.128906 7.074219 8.226562 7.132812 8.214844 7.101562 C 8.199219 7.0625 7.996094 6.933594 7.996094 6.960938 M 13.542969 6.992188 C 13.542969 7.003906 13.558594 7.039062 13.574219 7.066406 C 13.589844 7.097656 13.605469 7.109375 13.605469 7.097656 C 13.605469 7.085938 13.589844 7.054688 13.574219 7.023438 C 13.558594 6.996094 13.542969 6.980469 13.542969 6.992188 M 7.230469 7.390625 C 7.175781 7.511719 7.121094 7.617188 7.109375 7.621094 C 7.097656 7.625 7.09375 7.636719 7.101562 7.644531 C 7.109375 7.65625 7.121094 7.660156 7.125 7.652344 C 7.148438 7.625 7.359375 7.171875 7.347656 7.171875 C 7.339844 7.171875 7.289062 7.269531 7.230469 7.390625 M 9.113281 7.253906 C 9.148438 7.289062 9.183594 7.320312 9.195312 7.320312 C 9.222656 7.320312 9.191406 7.28125 9.121094 7.234375 L 9.054688 7.1875 L 9.113281 7.253906 M 13.71875 7.339844 C 13.742188 7.382812 13.765625 7.417969 13.769531 7.414062 C 13.78125 7.402344 13.703125 7.257812 13.6875 7.257812 C 13.679688 7.257812 13.691406 7.292969 13.71875 7.339844 M 8.550781 7.335938 C 8.59375 7.386719 8.601562 7.390625 8.601562 7.363281 C 8.601562 7.351562 8.582031 7.332031 8.554688 7.316406 C 8.507812 7.292969 8.507812 7.292969 8.550781 7.335938 M 9.289062 7.402344 C 9.320312 7.433594 9.351562 7.457031 9.355469 7.453125 C 9.367188 7.441406 9.269531 7.339844 9.246094 7.339844 C 9.238281 7.339844 9.253906 7.367188 9.289062 7.402344 M 8.625 7.382812 C 8.625 7.394531 8.671875 7.425781 8.734375 7.457031 C 8.792969 7.484375 8.824219 7.496094 8.804688 7.484375 C 8.78125 7.46875 8.75 7.441406 8.730469 7.421875 C 8.683594 7.378906 8.625 7.355469 8.625 7.382812 M 9.472656 7.5625 C 9.519531 7.605469 9.574219 7.648438 9.597656 7.660156 C 9.652344 7.6875 9.488281 7.535156 9.429688 7.507812 C 9.40625 7.496094 9.425781 7.519531 9.472656 7.5625 M 13.816406 7.539062 C 13.816406 7.550781 13.839844 7.605469 13.867188 7.65625 C 13.894531 7.707031 13.917969 7.742188 13.917969 7.730469 C 13.917969 7.71875 13.894531 7.664062 13.867188 7.613281 C 13.839844 7.5625 13.816406 7.527344 13.816406 7.539062 M 8.992188 7.597656 C 9.011719 7.609375 9.042969 7.632812 9.058594 7.648438 C 9.085938 7.675781 9.148438 7.6875 9.148438 7.667969 C 9.148438 7.652344 8.988281 7.570312 8.964844 7.574219 C 8.957031 7.574219 8.96875 7.582031 8.992188 7.597656 M 9.679688 7.726562 C 9.703125 7.757812 9.726562 7.78125 9.734375 7.78125 C 9.769531 7.78125 9.753906 7.75 9.699219 7.710938 L 9.644531 7.671875 L 9.679688 7.726562 M 9.398438 7.824219 C 9.460938 7.859375 9.523438 7.886719 9.535156 7.886719 C 9.546875 7.886719 9.503906 7.859375 9.441406 7.824219 C 9.378906 7.789062 9.316406 7.761719 9.304688 7.761719 C 9.292969 7.761719 9.335938 7.789062 9.398438 7.824219 M 13.921875 7.773438 C 13.921875 7.796875 14.007812 7.960938 14.039062 7.988281 C 14.078125 8.027344 14.074219 8.007812 14.011719 7.878906 C 13.960938 7.777344 13.921875 7.730469 13.921875 7.773438 M 9.792969 7.828125 C 9.804688 7.84375 9.84375 7.875 9.882812 7.894531 L 9.953125 7.933594 L 9.882812 7.867188 C 9.8125 7.804688 9.746094 7.777344 9.792969 7.828125 M 9.609375 7.929688 C 9.609375 7.941406 9.617188 7.945312 9.628906 7.941406 C 9.640625 7.933594 9.648438 7.9375 9.648438 7.949219 C 9.648438 7.960938 9.65625 7.96875 9.664062 7.96875 C 9.675781 7.964844 9.703125 7.972656 9.726562 7.988281 C 9.753906 8.003906 9.777344 8.007812 9.777344 7.996094 C 9.777344 7.980469 9.644531 7.910156 9.617188 7.910156 C 9.613281 7.910156 9.609375 7.917969 9.609375 7.929688 M 10.078125 8.042969 C 10.175781 8.136719 10.214844 8.160156 10.214844 8.117188 C 10.214844 8.105469 10.199219 8.097656 10.183594 8.097656 C 10.167969 8.097656 10.152344 8.089844 10.152344 8.078125 C 10.152344 8.070312 10.113281 8.035156 10.0625 8.003906 L 9.972656 7.945312 L 10.078125 8.042969 M 9.984375 8.109375 C 10.011719 8.125 10.046875 8.136719 10.058594 8.136719 C 10.070312 8.136719 10.054688 8.125 10.027344 8.109375 C 9.996094 8.089844 9.964844 8.078125 9.953125 8.078125 C 9.941406 8.078125 9.957031 8.089844 9.984375 8.109375 M 14.109375 8.128906 C 14.109375 8.140625 14.132812 8.191406 14.160156 8.246094 C 14.1875 8.296875 14.210938 8.328125 14.210938 8.320312 C 14.210938 8.308594 14.1875 8.253906 14.160156 8.203125 C 14.132812 8.152344 14.109375 8.117188 14.109375 8.128906 M 10.265625 8.179688 C 10.277344 8.199219 10.265625 8.199219 10.222656 8.191406 C 10.167969 8.179688 10.167969 8.183594 10.234375 8.210938 C 10.273438 8.230469 10.3125 8.238281 10.320312 8.234375 C 10.332031 8.226562 10.339844 8.234375 10.339844 8.25 C 10.339844 8.265625 10.367188 8.289062 10.402344 8.300781 C 10.4375 8.316406 10.464844 8.320312 10.464844 8.3125 C 10.464844 8.285156 10.332031 8.214844 10.300781 8.21875 C 10.285156 8.222656 10.28125 8.21875 10.285156 8.207031 C 10.292969 8.195312 10.289062 8.175781 10.273438 8.167969 C 10.257812 8.160156 10.257812 8.164062 10.265625 8.179688 M 6.773438 8.300781 C 6.757812 8.34375 6.757812 8.351562 6.785156 8.351562 C 6.796875 8.351562 6.800781 8.339844 6.792969 8.328125 C 6.785156 8.316406 6.789062 8.308594 6.800781 8.308594 C 6.8125 8.308594 6.824219 8.296875 6.824219 8.285156 C 6.824219 8.253906 6.789062 8.261719 6.773438 8.300781 M 14.320312 8.558594 C 14.347656 8.605469 14.371094 8.636719 14.375 8.636719 C 14.386719 8.625 14.308594 8.476562 14.292969 8.476562 C 14.28125 8.476562 14.296875 8.511719 14.320312 8.558594 M 6.574219 8.71875 C 6.539062 8.792969 6.496094 8.871094 6.480469 8.886719 C 6.445312 8.921875 6.4375 8.960938 6.464844 8.960938 C 6.484375 8.960938 6.664062 8.601562 6.648438 8.589844 C 6.644531 8.582031 6.613281 8.640625 6.574219 8.71875 M 14.445312 8.800781 C 14.445312 8.8125 14.464844 8.855469 14.484375 8.898438 C 14.507812 8.9375 14.523438 8.960938 14.523438 8.949219 C 14.523438 8.9375 14.507812 8.894531 14.484375 8.855469 C 14.464844 8.8125 14.445312 8.789062 14.445312 8.800781 M 6.355469 9.140625 C 6.277344 9.300781 6.292969 9.304688 6.378906 9.148438 C 6.414062 9.078125 6.4375 9.023438 6.429688 9.023438 C 6.421875 9.023438 6.386719 9.074219 6.355469 9.140625 M 14.652344 9.203125 C 14.652344 9.226562 14.839844 9.585938 14.839844 9.566406 C 14.839844 9.550781 14.679688 9.210938 14.664062 9.195312 C 14.65625 9.1875 14.652344 9.191406 14.652344 9.203125 M 6.167969 9.511719 C 6.128906 9.5625 6.125 9.589844 6.15625 9.589844 C 6.167969 9.589844 6.171875 9.582031 6.164062 9.570312 C 6.15625 9.558594 6.160156 9.546875 6.171875 9.546875 C 6.191406 9.546875 6.222656 9.484375 6.210938 9.472656 C 6.207031 9.46875 6.1875 9.488281 6.167969 9.511719 M 6.039062 9.757812 C 5.964844 9.902344 5.972656 9.921875 6.050781 9.785156 C 6.085938 9.722656 6.109375 9.667969 6.105469 9.660156 C 6.097656 9.65625 6.070312 9.699219 6.039062 9.757812 M 14.941406 9.777344 C 14.972656 9.835938 15 9.878906 15.003906 9.875 C 15.015625 9.863281 14.917969 9.675781 14.898438 9.675781 C 14.890625 9.675781 14.910156 9.722656 14.941406 9.777344 M 5.855469 10.121094 C 5.8125 10.171875 5.808594 10.199219 5.839844 10.199219 C 5.855469 10.199219 5.859375 10.191406 5.851562 10.179688 C 5.84375 10.167969 5.847656 10.160156 5.859375 10.160156 C 5.875 10.160156 5.910156 10.097656 5.898438 10.082031 C 5.894531 10.082031 5.875 10.097656 5.855469 10.121094 M 15.15625 10.210938 C 15.15625 10.226562 15.320312 10.507812 15.320312 10.492188 C 15.324219 10.460938 15.1875 10.199219 15.171875 10.199219 C 15.164062 10.199219 15.15625 10.203125 15.15625 10.210938 M 5.738281 10.34375 C 5.648438 10.519531 5.65625 10.535156 5.75 10.371094 C 5.789062 10.300781 5.816406 10.234375 5.8125 10.230469 C 5.804688 10.222656 5.773438 10.273438 5.738281 10.34375 M 15.433594 10.738281 C 15.457031 10.789062 15.484375 10.832031 15.492188 10.832031 C 15.5 10.832031 15.484375 10.789062 15.457031 10.738281 C 15.425781 10.683594 15.398438 10.640625 15.394531 10.640625 C 15.390625 10.640625 15.40625 10.683594 15.433594 10.738281 M 5.503906 10.769531 C 5.476562 10.820312 5.496094 10.855469 5.527344 10.808594 C 5.546875 10.777344 5.554688 10.726562 5.539062 10.726562 C 5.53125 10.726562 5.515625 10.746094 5.503906 10.769531 M 5.414062 10.972656 C 5.335938 11.128906 5.351562 11.132812 5.4375 10.976562 C 5.472656 10.910156 5.496094 10.851562 5.488281 10.851562 C 5.480469 10.851562 5.445312 10.90625 5.414062 10.972656 M 15.570312 11 C 15.601562 11.054688 15.628906 11.097656 15.632812 11.09375 C 15.644531 11.085938 15.542969 10.894531 15.527344 10.894531 C 15.519531 10.894531 15.535156 10.941406 15.570312 11 M 5.292969 11.214844 C 5.28125 11.242188 5.261719 11.269531 5.253906 11.273438 C 5.210938 11.304688 5.160156 11.441406 5.191406 11.441406 C 5.203125 11.441406 5.210938 11.433594 5.203125 11.421875 C 5.195312 11.410156 5.199219 11.398438 5.210938 11.394531 C 5.230469 11.386719 5.34375 11.167969 5.328125 11.167969 C 5.324219 11.167969 5.308594 11.191406 5.292969 11.214844 M 15.734375 11.324219 C 15.765625 11.390625 15.796875 11.441406 15.804688 11.441406 C 15.8125 11.441406 15.792969 11.390625 15.757812 11.324219 C 15.722656 11.261719 15.691406 11.210938 15.6875 11.210938 C 15.683594 11.210938 15.703125 11.261719 15.734375 11.324219 M 5.066406 11.628906 C 5.007812 11.746094 5.011719 11.765625 5.078125 11.652344 C 5.105469 11.601562 5.125 11.558594 5.121094 11.550781 C 5.113281 11.546875 5.089844 11.582031 5.066406 11.628906 M 15.910156 11.636719 C 15.910156 11.691406 16.113281 12.0625 16.132812 12.042969 C 16.140625 12.035156 16.136719 12.023438 16.125 12.015625 C 16.113281 12.003906 16.0625 11.917969 16.015625 11.820312 C 15.929688 11.648438 15.910156 11.609375 15.910156 11.636719 M 4.867188 11.988281 C 4.828125 12.0625 4.828125 12.074219 4.859375 12.074219 C 4.875 12.074219 4.878906 12.066406 4.871094 12.058594 C 4.863281 12.050781 4.871094 12.03125 4.890625 12.015625 C 4.917969 11.988281 4.929688 11.925781 4.910156 11.925781 C 4.902344 11.925781 4.886719 11.953125 4.867188 11.988281 M 16.160156 12.136719 C 16.160156 12.144531 16.1875 12.199219 16.222656 12.253906 C 16.300781 12.375 16.304688 12.359375 16.234375 12.21875 C 16.183594 12.117188 16.160156 12.09375 16.160156 12.136719 M 9.917969 12.359375 C 9.878906 12.371094 9.863281 12.410156 9.898438 12.410156 C 9.933594 12.410156 9.984375 12.382812 9.984375 12.363281 C 9.984375 12.34375 9.976562 12.34375 9.917969 12.359375 M 9.691406 12.484375 C 9.554688 12.570312 9.570312 12.582031 9.707031 12.5 C 9.828125 12.433594 9.828125 12.433594 9.816406 12.421875 C 9.808594 12.417969 9.753906 12.445312 9.691406 12.484375 M 11.242188 12.5 C 11.242188 12.503906 11.289062 12.542969 11.351562 12.582031 C 11.410156 12.617188 11.523438 12.710938 11.601562 12.785156 C 11.675781 12.859375 11.761719 12.933594 11.789062 12.953125 L 11.835938 12.984375 L 11.796875 12.9375 C 11.671875 12.792969 11.242188 12.453125 11.242188 12.5 M 4.542969 12.601562 C 4.515625 12.652344 4.535156 12.6875 4.5625 12.640625 C 4.585938 12.605469 4.589844 12.554688 4.574219 12.554688 C 4.570312 12.554688 4.554688 12.578125 4.542969 12.601562 M 9.476562 12.613281 C 9.433594 12.644531 9.398438 12.675781 9.398438 12.683594 C 9.398438 12.714844 9.410156 12.707031 9.496094 12.628906 C 9.589844 12.542969 9.585938 12.539062 9.476562 12.613281 M 16.414062 12.628906 C 16.4375 12.683594 16.472656 12.703125 16.472656 12.664062 C 16.472656 12.644531 16.417969 12.578125 16.398438 12.578125 C 16.394531 12.578125 16.402344 12.601562 16.414062 12.628906 M 9.316406 12.753906 C 9.296875 12.765625 9.246094 12.820312 9.199219 12.871094 C 9.121094 12.960938 9.121094 12.957031 9.246094 12.851562 C 9.320312 12.789062 9.378906 12.734375 9.378906 12.730469 C 9.378906 12.714844 9.34375 12.726562 9.316406 12.753906 M 16.605469 12.992188 C 16.675781 13.128906 16.738281 13.242188 16.75 13.246094 C 16.757812 13.25 16.761719 13.261719 16.753906 13.273438 C 16.75 13.285156 16.753906 13.292969 16.765625 13.292969 C 16.777344 13.292969 16.789062 13.289062 16.789062 13.28125 C 16.789062 13.261719 16.738281 13.167969 16.726562 13.167969 C 16.71875 13.167969 16.667969 13.070312 16.609375 12.957031 C 16.554688 12.839844 16.5 12.746094 16.492188 12.746094 C 16.488281 12.746094 16.539062 12.855469 16.605469 12.992188 M 4.382812 12.914062 C 4.367188 12.953125 4.355469 12.984375 4.359375 12.988281 C 4.363281 12.992188 4.382812 12.964844 4.402344 12.925781 C 4.445312 12.832031 4.429688 12.828125 4.382812 12.914062 M 9.027344 13.0625 C 9.011719 13.085938 9.007812 13.101562 9.015625 13.101562 C 9.039062 13.101562 9.085938 13.058594 9.085938 13.035156 C 9.085938 13.003906 9.054688 13.019531 9.027344 13.0625 M 11.847656 13.03125 C 11.847656 13.042969 11.882812 13.089844 11.921875 13.136719 C 11.964844 13.179688 11.988281 13.199219 11.976562 13.175781 C 11.945312 13.117188 11.847656 13.003906 11.847656 13.03125 M 8.929688 13.191406 L 8.890625 13.261719 L 8.945312 13.203125 C 9.003906 13.140625 9.011719 13.125 8.984375 13.125 C 8.976562 13.125 8.949219 13.15625 8.929688 13.191406 M 4.210938 13.222656 C 4.179688 13.28125 4.179688 13.292969 4.207031 13.292969 C 4.222656 13.292969 4.226562 13.285156 4.21875 13.273438 C 4.210938 13.261719 4.21875 13.25 4.230469 13.246094 C 4.246094 13.242188 4.25 13.222656 4.246094 13.207031 C 4.238281 13.183594 4.230469 13.1875 4.210938 13.222656 M 8.804688 13.390625 C 8.773438 13.445312 8.75 13.492188 8.757812 13.496094 C 8.761719 13.5 8.792969 13.460938 8.824219 13.40625 C 8.851562 13.355469 8.875 13.308594 8.871094 13.300781 C 8.867188 13.296875 8.835938 13.335938 8.804688 13.390625 M 12.035156 13.3125 C 12.035156 13.324219 12.046875 13.335938 12.054688 13.335938 C 12.066406 13.335938 12.101562 13.378906 12.132812 13.429688 C 12.160156 13.480469 12.191406 13.523438 12.195312 13.523438 C 12.203125 13.523438 12.179688 13.472656 12.144531 13.414062 C 12.082031 13.308594 12.035156 13.265625 12.035156 13.3125 M 16.808594 13.367188 C 16.808594 13.375 16.835938 13.425781 16.871094 13.488281 C 16.949219 13.621094 16.953125 13.605469 16.882812 13.460938 C 16.835938 13.367188 16.808594 13.332031 16.808594 13.367188 M 12.226562 13.589844 C 12.222656 13.617188 12.316406 13.796875 12.332031 13.796875 C 12.339844 13.796875 12.339844 13.769531 12.324219 13.734375 C 12.3125 13.699219 12.296875 13.671875 12.289062 13.671875 C 12.28125 13.671875 12.261719 13.648438 12.25 13.625 C 12.238281 13.597656 12.226562 13.582031 12.226562 13.589844 M 8.628906 13.707031 C 8.601562 13.757812 8.585938 13.808594 8.589844 13.8125 C 8.59375 13.816406 8.605469 13.804688 8.613281 13.78125 C 8.621094 13.757812 8.644531 13.71875 8.667969 13.691406 C 8.710938 13.640625 8.71875 13.609375 8.691406 13.609375 C 8.683594 13.609375 8.652344 13.652344 8.628906 13.707031 M 17.019531 13.78125 C 17.046875 13.835938 17.078125 13.882812 17.085938 13.882812 C 17.097656 13.882812 17.097656 13.890625 17.089844 13.902344 C 17.085938 13.914062 17.089844 13.921875 17.101562 13.921875 C 17.140625 13.921875 17.089844 13.804688 17.015625 13.726562 C 16.976562 13.6875 16.976562 13.691406 17.019531 13.78125 M 3.886719 13.832031 C 3.839844 13.925781 3.84375 13.941406 3.894531 13.875 C 3.917969 13.84375 3.933594 13.804688 3.929688 13.792969 C 3.925781 13.777344 3.90625 13.796875 3.886719 13.832031 M 3.742188 14.125 C 3.730469 14.152344 3.710938 14.175781 3.703125 14.175781 C 3.691406 14.175781 3.683594 14.183594 3.683594 14.195312 C 3.683594 14.242188 3.71875 14.214844 3.753906 14.144531 C 3.773438 14.105469 3.785156 14.070312 3.777344 14.070312 C 3.773438 14.070312 3.757812 14.09375 3.742188 14.125 M 17.183594 14.082031 C 17.183594 14.085938 17.203125 14.121094 17.226562 14.160156 C 17.277344 14.242188 17.285156 14.222656 17.238281 14.132812 C 17.207031 14.078125 17.183594 14.054688 17.183594 14.082031 M 3.582031 14.40625 C 3.519531 14.523438 3.527344 14.542969 3.59375 14.433594 C 3.621094 14.382812 3.640625 14.335938 3.636719 14.332031 C 3.628906 14.324219 3.605469 14.359375 3.582031 14.40625 M 3.453125 14.664062 C 3.425781 14.714844 3.398438 14.757812 3.390625 14.765625 C 3.371094 14.78125 3.183594 15.152344 3.191406 15.160156 C 3.199219 15.167969 3.371094 14.855469 3.367188 14.835938 C 3.367188 14.828125 3.375 14.816406 3.386719 14.808594 C 3.410156 14.792969 3.523438 14.574219 3.507812 14.574219 C 3.5 14.574219 3.476562 14.617188 3.453125 14.664062 M 17.542969 14.753906 C 17.542969 14.765625 17.554688 14.792969 17.574219 14.816406 C 17.589844 14.839844 17.605469 14.847656 17.605469 14.835938 C 17.605469 14.824219 17.589844 14.796875 17.574219 14.773438 C 17.554688 14.75 17.542969 14.742188 17.542969 14.753906 M 12.664062 14.816406 C 12.664062 14.832031 12.671875 14.851562 12.683594 14.859375 C 12.695312 14.867188 12.707031 14.859375 12.707031 14.839844 C 12.707031 14.824219 12.695312 14.804688 12.683594 14.796875 C 12.671875 14.789062 12.664062 14.796875 12.664062 14.816406 M 15.71875 15.320312 C 15.75 15.335938 15.78125 15.34375 15.789062 15.339844 C 15.8125 15.324219 15.804688 15.320312 15.730469 15.304688 L 15.667969 15.289062 L 15.71875 15.320312 M 15.832031 15.347656 C 15.796875 15.359375 15.832031 15.398438 15.925781 15.445312 C 15.976562 15.472656 15.988281 15.476562 15.980469 15.449219 C 15.972656 15.433594 15.941406 15.410156 15.90625 15.394531 C 15.859375 15.375 15.851562 15.363281 15.871094 15.351562 C 15.898438 15.332031 15.875 15.328125 15.832031 15.347656 M 3.035156 15.394531 C 3.007812 15.445312 3.007812 15.457031 3.03125 15.457031 C 3.042969 15.457031 3.058594 15.433594 3.074219 15.40625 C 3.101562 15.34375 3.066406 15.335938 3.035156 15.394531 M 16.023438 15.394531 C 16.046875 15.40625 16.078125 15.414062 16.097656 15.414062 C 16.117188 15.414062 16.113281 15.40625 16.085938 15.394531 C 16.0625 15.386719 16.03125 15.378906 16.011719 15.378906 C 15.992188 15.378906 15.996094 15.382812 16.023438 15.394531 M 17.875 15.386719 C 17.875 15.421875 17.964844 15.5625 17.988281 15.5625 C 18.007812 15.5625 18.007812 15.558594 17.988281 15.546875 C 17.972656 15.539062 17.945312 15.496094 17.929688 15.453125 C 17.902344 15.382812 17.875 15.351562 17.875 15.386719 M 16.285156 15.476562 C 16.285156 15.5 16.390625 15.53125 16.40625 15.511719 C 16.421875 15.496094 16.410156 15.488281 16.34375 15.472656 C 16.3125 15.464844 16.285156 15.464844 16.285156 15.476562 M 16.171875 15.574219 C 16.214844 15.605469 16.261719 15.628906 16.273438 15.628906 C 16.285156 15.628906 16.257812 15.605469 16.210938 15.574219 C 16.167969 15.546875 16.117188 15.523438 16.109375 15.523438 C 16.097656 15.523438 16.125 15.546875 16.171875 15.574219 M 16.628906 15.597656 C 16.664062 15.613281 16.707031 15.625 16.726562 15.625 C 16.742188 15.625 16.722656 15.609375 16.683594 15.59375 C 16.585938 15.558594 16.550781 15.558594 16.628906 15.597656 M 2.898438 15.671875 C 2.878906 15.707031 2.867188 15.738281 2.871094 15.746094 C 2.878906 15.75 2.898438 15.71875 2.914062 15.679688 C 2.960938 15.589844 2.945312 15.582031 2.898438 15.671875 M 8.136719 15.648438 C 8.125 15.699219 8.132812 15.730469 8.15625 15.707031 C 8.160156 15.699219 8.164062 15.671875 8.160156 15.644531 L 8.152344 15.59375 L 8.136719 15.648438 M 18.023438 15.636719 C 18.023438 15.660156 18.246094 16.101562 18.304688 16.195312 C 18.394531 16.339844 18.410156 16.371094 18.371094 16.355469 C 18.347656 16.347656 18.34375 16.355469 18.351562 16.375 C 18.363281 16.410156 18.421875 16.417969 18.421875 16.382812 C 18.421875 16.355469 18.292969 16.105469 18.273438 16.089844 C 18.265625 16.085938 18.210938 15.980469 18.148438 15.859375 C 18.039062 15.636719 18.023438 15.605469 18.023438 15.636719 M 12.816406 15.765625 C 12.816406 15.808594 12.820312 15.828125 12.824219 15.800781 C 12.832031 15.773438 12.832031 15.738281 12.824219 15.714844 C 12.820312 15.695312 12.816406 15.71875 12.816406 15.765625 M 16.410156 15.710938 C 16.410156 15.734375 16.601562 15.84375 16.617188 15.828125 C 16.621094 15.820312 16.617188 15.816406 16.609375 15.816406 C 16.597656 15.816406 16.554688 15.789062 16.515625 15.753906 C 16.441406 15.6875 16.410156 15.675781 16.410156 15.710938 M 17.226562 15.8125 C 17.226562 15.835938 17.277344 15.859375 17.316406 15.859375 C 17.332031 15.859375 17.324219 15.84375 17.300781 15.828125 C 17.253906 15.792969 17.226562 15.785156 17.226562 15.8125 M 2.777344 15.898438 C 2.742188 15.941406 2.679688 16.058594 2.679688 16.078125 C 2.679688 16.109375 2.738281 16.03125 2.78125 15.945312 C 2.832031 15.847656 2.832031 15.839844 2.777344 15.898438 M 17.394531 15.875 C 17.394531 15.898438 17.457031 15.929688 17.472656 15.914062 C 17.476562 15.910156 17.460938 15.894531 17.4375 15.878906 C 17.414062 15.867188 17.394531 15.867188 17.394531 15.875 M 16.714844 15.898438 C 16.742188 15.917969 16.9375 16.058594 16.972656 16.078125 C 17.066406 16.132812 16.96875 16.035156 16.859375 15.964844 C 16.734375 15.886719 16.667969 15.855469 16.714844 15.898438 M 17.582031 15.972656 C 17.613281 15.992188 17.644531 16.003906 17.65625 16.003906 C 17.667969 16.003906 17.652344 15.992188 17.625 15.972656 C 17.597656 15.957031 17.5625 15.945312 17.550781 15.945312 C 17.539062 15.945312 17.554688 15.957031 17.582031 15.972656 M 17.019531 16.097656 C 17.019531 16.105469 17.066406 16.136719 17.234375 16.246094 C 17.347656 16.320312 17.289062 16.257812 17.164062 16.175781 C 17.050781 16.09375 17.019531 16.078125 17.019531 16.097656 M 2.585938 16.257812 C 2.546875 16.339844 2.515625 16.40625 2.519531 16.40625 C 2.535156 16.40625 2.679688 16.125 2.667969 16.117188 C 2.664062 16.109375 2.628906 16.175781 2.585938 16.257812 M 17.921875 16.140625 C 17.9375 16.160156 18.261719 16.320312 18.265625 16.316406 C 18.277344 16.304688 17.964844 16.132812 17.9375 16.132812 C 17.921875 16.132812 17.914062 16.136719 17.921875 16.140625 M 17.3125 16.300781 C 17.3125 16.3125 17.324219 16.320312 17.339844 16.320312 C 17.355469 16.320312 17.375 16.332031 17.378906 16.347656 C 17.386719 16.363281 17.421875 16.390625 17.460938 16.414062 L 17.53125 16.453125 L 17.46875 16.390625 C 17.394531 16.316406 17.3125 16.269531 17.3125 16.300781 M 8.125 16.496094 C 8.128906 16.566406 8.160156 16.605469 8.164062 16.535156 C 8.164062 16.5 8.152344 16.46875 8.144531 16.46875 C 8.132812 16.46875 8.121094 16.480469 8.125 16.496094 M 12.816406 16.605469 C 12.816406 16.652344 12.820312 16.667969 12.824219 16.640625 C 12.832031 16.617188 12.832031 16.578125 12.824219 16.558594 C 12.820312 16.539062 12.816406 16.558594 12.816406 16.605469 M 2.375 16.613281 C 2.339844 16.6875 2.335938 16.699219 2.367188 16.699219 C 2.382812 16.699219 2.386719 16.695312 2.378906 16.6875 C 2.375 16.679688 2.382812 16.660156 2.398438 16.644531 C 2.425781 16.613281 2.441406 16.550781 2.417969 16.550781 C 2.414062 16.550781 2.394531 16.582031 2.375 16.613281 M 18 16.816406 C 18.015625 16.832031 18.039062 16.847656 18.050781 16.847656 C 18.0625 16.847656 18.058594 16.832031 18.042969 16.816406 C 18.03125 16.796875 18.007812 16.785156 17.996094 16.785156 C 17.984375 16.785156 17.988281 16.796875 18 16.816406 M 2.238281 16.890625 C 2.214844 16.9375 2.199219 16.980469 2.203125 16.984375 C 2.207031 16.988281 2.230469 16.949219 2.257812 16.898438 C 2.3125 16.78125 2.296875 16.773438 2.238281 16.890625 M 18.105469 16.898438 C 18.121094 16.917969 18.140625 16.929688 18.152344 16.929688 C 18.164062 16.929688 18.164062 16.917969 18.148438 16.898438 C 18.132812 16.882812 18.113281 16.867188 18.101562 16.867188 C 18.089844 16.867188 18.09375 16.882812 18.105469 16.898438 M 18.210938 16.96875 C 18.210938 16.992188 18.269531 17.046875 18.28125 17.035156 C 18.285156 17.03125 18.273438 17.007812 18.25 16.984375 C 18.230469 16.964844 18.210938 16.953125 18.210938 16.96875 M 2.164062 17.03125 C 2.152344 17.039062 2.113281 17.097656 2.082031 17.164062 C 2 17.3125 2.003906 17.308594 2.023438 17.308594 C 2.035156 17.308594 2.054688 17.285156 2.066406 17.253906 C 2.078125 17.21875 2.117188 17.152344 2.148438 17.105469 C 2.203125 17.015625 2.207031 17.003906 2.164062 17.03125 M 18.550781 17.246094 C 18.554688 17.261719 18.605469 17.304688 18.660156 17.347656 L 18.765625 17.421875 L 18.691406 17.34375 C 18.609375 17.257812 18.535156 17.207031 18.550781 17.246094 M 1.894531 17.523438 C 1.875 17.558594 1.863281 17.589844 1.867188 17.59375 C 1.871094 17.601562 1.890625 17.570312 1.910156 17.53125 C 1.953125 17.441406 1.9375 17.433594 1.894531 17.523438 M 18.886719 17.523438 C 18.890625 17.539062 18.910156 17.558594 18.933594 17.570312 C 18.957031 17.582031 18.984375 17.605469 18.996094 17.617188 C 19.007812 17.628906 19.035156 17.652344 19.058594 17.667969 L 19.101562 17.699219 L 19.058594 17.648438 C 18.964844 17.535156 18.867188 17.460938 18.886719 17.523438 M 13.269531 17.625 C 13.269531 17.636719 13.285156 17.644531 13.300781 17.644531 C 13.320312 17.644531 13.332031 17.636719 13.332031 17.625 C 13.332031 17.613281 13.320312 17.605469 13.300781 17.605469 C 13.285156 17.605469 13.269531 17.613281 13.269531 17.625 M 19.167969 17.804688 C 19.199219 17.867188 19.230469 17.917969 19.242188 17.917969 C 19.265625 17.917969 19.261719 17.882812 19.230469 17.851562 C 19.214844 17.835938 19.183594 17.792969 19.164062 17.753906 C 19.105469 17.640625 19.109375 17.683594 19.167969 17.804688 M 1.707031 17.855469 C 1.664062 17.9375 1.636719 18.003906 1.640625 18.003906 C 1.65625 18.003906 1.800781 17.726562 1.792969 17.714844 C 1.785156 17.710938 1.75 17.773438 1.707031 17.855469 M 19.277344 17.992188 C 19.277344 18 19.3125 18.0625 19.351562 18.136719 C 19.441406 18.296875 19.449219 18.28125 19.363281 18.109375 C 19.308594 18 19.277344 17.960938 19.277344 17.992188 M 1.519531 18.183594 C 1.484375 18.21875 1.476562 18.257812 1.503906 18.257812 C 1.511719 18.257812 1.53125 18.234375 1.546875 18.203125 C 1.574219 18.144531 1.566406 18.136719 1.519531 18.183594 M 15.300781 18.253906 C 15.300781 18.277344 15.367188 18.304688 15.382812 18.289062 C 15.390625 18.28125 15.378906 18.265625 15.363281 18.253906 C 15.324219 18.230469 15.300781 18.230469 15.300781 18.253906 M 19.480469 18.386719 C 19.511719 18.449219 19.542969 18.5 19.554688 18.503906 C 19.5625 18.507812 19.566406 18.519531 19.558594 18.53125 C 19.554688 18.542969 19.558594 18.550781 19.570312 18.550781 C 19.605469 18.550781 19.574219 18.453125 19.53125 18.425781 C 19.523438 18.417969 19.5 18.382812 19.480469 18.347656 C 19.460938 18.308594 19.441406 18.277344 19.433594 18.277344 C 19.429688 18.277344 19.449219 18.328125 19.480469 18.386719 M 1.382812 18.441406 C 1.324219 18.5625 1.328125 18.582031 1.394531 18.46875 C 1.421875 18.417969 1.441406 18.371094 1.4375 18.367188 C 1.429688 18.363281 1.40625 18.394531 1.382812 18.441406 M 21.84375 18.511719 C 21.824219 18.574219 21.839844 18.578125 21.867188 18.519531 C 21.878906 18.488281 21.882812 18.464844 21.875 18.464844 C 21.863281 18.464844 21.851562 18.484375 21.84375 18.511719 M 16.003906 18.542969 C 16.019531 18.5625 16.042969 18.570312 16.050781 18.5625 C 16.058594 18.554688 16.050781 18.539062 16.035156 18.527344 C 15.984375 18.496094 15.964844 18.503906 16.003906 18.542969 M 1.277344 18.65625 C 1.253906 18.703125 1.214844 18.761719 1.191406 18.78125 C 1.148438 18.824219 1.136719 18.867188 1.167969 18.867188 C 1.179688 18.867188 1.222656 18.800781 1.265625 18.71875 C 1.308594 18.636719 1.335938 18.570312 1.332031 18.570312 C 1.324219 18.570312 1.300781 18.609375 1.277344 18.65625 M 4.679688 18.613281 C 4.605469 18.660156 4.613281 18.664062 4.707031 18.632812 C 4.742188 18.621094 4.773438 18.601562 4.773438 18.589844 C 4.773438 18.5625 4.746094 18.566406 4.679688 18.613281 M 19.59375 18.582031 C 19.59375 18.585938 19.625 18.652344 19.664062 18.722656 C 19.753906 18.886719 19.761719 18.867188 19.675781 18.699219 C 19.621094 18.585938 19.59375 18.546875 19.59375 18.582031 M 4.417969 18.730469 C 4.386719 18.746094 4.375 18.757812 4.386719 18.757812 C 4.398438 18.757812 4.429688 18.746094 4.457031 18.730469 C 4.488281 18.714844 4.5 18.699219 4.488281 18.699219 C 4.476562 18.699219 4.445312 18.714844 4.417969 18.730469 M 16.496094 18.75 C 16.523438 18.765625 16.554688 18.78125 16.566406 18.78125 C 16.578125 18.78125 16.566406 18.765625 16.535156 18.75 C 16.507812 18.734375 16.476562 18.71875 16.464844 18.71875 C 16.453125 18.71875 16.464844 18.734375 16.496094 18.75 M 21.605469 18.738281 C 21.605469 18.757812 21.613281 18.789062 21.625 18.8125 C 21.632812 18.839844 21.640625 18.84375 21.640625 18.824219 C 21.640625 18.808594 21.632812 18.773438 21.625 18.75 C 21.613281 18.722656 21.605469 18.71875 21.605469 18.738281 M 16.640625 18.8125 C 16.671875 18.832031 16.703125 18.84375 16.714844 18.84375 C 16.726562 18.84375 16.710938 18.832031 16.683594 18.8125 C 16.65625 18.796875 16.621094 18.785156 16.609375 18.785156 C 16.597656 18.785156 16.613281 18.796875 16.640625 18.8125 M 21.519531 18.832031 C 21.515625 18.871094 21.566406 19.011719 21.585938 19.011719 C 21.605469 19.011719 21.609375 18.984375 21.585938 18.960938 C 21.578125 18.953125 21.558594 18.917969 21.546875 18.878906 C 21.53125 18.84375 21.519531 18.820312 21.519531 18.832031 M 21.808594 18.941406 C 21.789062 18.992188 21.78125 19.035156 21.789062 19.035156 C 21.804688 19.035156 21.859375 18.867188 21.847656 18.855469 C 21.84375 18.851562 21.828125 18.890625 21.808594 18.941406 M 4.0625 18.886719 C 4.0625 18.902344 4.050781 18.90625 4.039062 18.898438 C 4.027344 18.890625 4.019531 18.894531 4.019531 18.90625 C 4.019531 18.933594 4.023438 18.933594 4.070312 18.917969 C 4.105469 18.902344 4.113281 18.867188 4.082031 18.867188 C 4.070312 18.867188 4.0625 18.875 4.0625 18.886719 M 19.792969 18.972656 C 19.824219 19.035156 19.855469 19.09375 19.867188 19.097656 C 19.875 19.101562 19.894531 19.136719 19.910156 19.171875 C 19.980469 19.335938 20.164062 19.664062 20.179688 19.664062 C 20.199219 19.664062 20.164062 19.582031 20.136719 19.558594 C 20.128906 19.554688 20.058594 19.421875 19.980469 19.269531 C 19.902344 19.113281 19.832031 18.976562 19.820312 18.960938 C 19.808594 18.949219 19.785156 18.921875 19.769531 18.898438 C 19.75 18.875 19.761719 18.90625 19.792969 18.972656 M 3.945312 18.9375 C 3.921875 18.957031 3.914062 18.96875 3.925781 18.96875 C 3.957031 18.972656 4.007812 18.933594 3.996094 18.921875 C 3.988281 18.914062 3.964844 18.921875 3.945312 18.9375 M 16.890625 18.929688 C 16.890625 18.949219 17.0625 19.019531 17.074219 19.003906 C 17.082031 19 17.066406 18.984375 17.042969 18.972656 C 17.019531 18.960938 16.996094 18.957031 16.988281 18.964844 C 16.980469 18.972656 16.976562 18.96875 16.976562 18.957031 C 16.976562 18.945312 16.957031 18.929688 16.933594 18.921875 C 16.910156 18.917969 16.890625 18.917969 16.890625 18.929688 M 21.664062 18.949219 C 21.664062 18.960938 21.679688 18.972656 21.695312 18.972656 C 21.714844 18.972656 21.726562 18.960938 21.726562 18.949219 C 21.726562 18.9375 21.714844 18.929688 21.695312 18.929688 C 21.679688 18.929688 21.664062 18.9375 21.664062 18.949219 M 1.035156 19.078125 C 1.015625 19.113281 1.003906 19.148438 1.011719 19.152344 C 1.015625 19.15625 1.035156 19.128906 1.054688 19.085938 C 1.097656 18.996094 1.082031 18.988281 1.035156 19.078125 M 17.25 19.097656 C 17.289062 19.121094 17.332031 19.136719 17.34375 19.136719 C 17.355469 19.136719 17.332031 19.121094 17.289062 19.097656 C 17.25 19.074219 17.207031 19.058594 17.195312 19.058594 C 17.183594 19.058594 17.207031 19.074219 17.25 19.097656 M 3.578125 19.109375 C 3.550781 19.125 3.535156 19.136719 3.546875 19.136719 C 3.558594 19.136719 3.59375 19.125 3.621094 19.109375 C 3.648438 19.089844 3.664062 19.078125 3.652344 19.078125 C 3.640625 19.078125 3.609375 19.089844 3.578125 19.109375 M 21.675781 19.140625 L 21.613281 19.15625 L 21.679688 19.15625 C 21.714844 19.160156 21.753906 19.152344 21.757812 19.140625 C 21.773438 19.117188 21.765625 19.117188 21.675781 19.140625 M 17.414062 19.183594 C 17.464844 19.226562 17.5 19.234375 17.5 19.207031 C 17.5 19.191406 17.410156 19.140625 17.378906 19.140625 C 17.375 19.140625 17.390625 19.160156 17.414062 19.183594 M 21 19.152344 C 21.019531 19.160156 21.054688 19.160156 21.074219 19.152344 C 21.09375 19.148438 21.078125 19.144531 21.039062 19.144531 C 20.996094 19.144531 20.980469 19.148438 21 19.152344 M 3.433594 19.183594 C 3.433594 19.195312 3.421875 19.199219 3.410156 19.191406 C 3.402344 19.183594 3.390625 19.1875 3.390625 19.203125 C 3.390625 19.226562 3.398438 19.226562 3.441406 19.210938 C 3.476562 19.195312 3.488281 19.160156 3.453125 19.160156 C 3.441406 19.160156 3.433594 19.171875 3.433594 19.183594 M 0.941406 19.269531 C 0.925781 19.296875 0.910156 19.324219 0.902344 19.328125 C 0.851562 19.367188 0.804688 19.476562 0.835938 19.476562 C 0.847656 19.476562 0.859375 19.460938 0.859375 19.445312 C 0.859375 19.429688 0.871094 19.402344 0.886719 19.386719 C 0.921875 19.355469 0.988281 19.222656 0.976562 19.222656 C 0.96875 19.222656 0.953125 19.246094 0.941406 19.269531 M 3.140625 19.328125 C 3.097656 19.351562 3.074219 19.371094 3.085938 19.371094 C 3.097656 19.371094 3.140625 19.351562 3.183594 19.328125 C 3.222656 19.308594 3.246094 19.289062 3.234375 19.289062 C 3.222656 19.289062 3.179688 19.308594 3.140625 19.328125 M 17.875 19.402344 C 17.90625 19.417969 17.9375 19.433594 17.949219 19.433594 C 17.960938 19.433594 17.945312 19.417969 17.917969 19.402344 C 17.890625 19.386719 17.855469 19.371094 17.84375 19.371094 C 17.832031 19.371094 17.847656 19.386719 17.875 19.402344 M 2.871094 19.449219 C 2.835938 19.46875 2.804688 19.492188 2.804688 19.503906 C 2.804688 19.511719 2.796875 19.515625 2.785156 19.507812 C 2.773438 19.5 2.761719 19.503906 2.761719 19.515625 C 2.761719 19.550781 2.855469 19.519531 2.886719 19.476562 C 2.894531 19.46875 2.917969 19.453125 2.941406 19.4375 C 3.003906 19.402344 2.949219 19.410156 2.871094 19.449219 M 2.511719 19.644531 C 2.472656 19.667969 2.449219 19.683594 2.460938 19.683594 C 2.472656 19.683594 2.511719 19.667969 2.554688 19.644531 C 2.59375 19.621094 2.617188 19.605469 2.605469 19.605469 C 2.59375 19.605469 2.550781 19.621094 2.511719 19.644531 M 18.296875 19.613281 C 18.296875 19.625 18.539062 19.75 18.5625 19.75 C 18.574219 19.75 18.316406 19.601562 18.300781 19.601562 C 18.296875 19.601562 18.296875 19.605469 18.296875 19.613281 M 0.699219 19.6875 C 0.683594 19.722656 0.671875 19.757812 0.675781 19.761719 C 0.679688 19.765625 0.699219 19.738281 0.71875 19.695312 C 0.761719 19.605469 0.746094 19.597656 0.699219 19.6875 M 20.210938 19.730469 C 20.230469 19.792969 20.238281 19.804688 20.253906 19.785156 C 20.261719 19.777344 20.25 19.75 20.230469 19.726562 L 20.195312 19.675781 L 20.210938 19.730469 M 2.265625 19.765625 C 2.230469 19.785156 2.199219 19.808594 2.199219 19.816406 C 2.199219 19.828125 2.1875 19.832031 2.175781 19.824219 C 2.164062 19.816406 2.15625 19.820312 2.15625 19.832031 C 2.15625 19.871094 2.234375 19.839844 2.308594 19.769531 C 2.359375 19.722656 2.355469 19.722656 2.265625 19.765625 M 0.617188 19.851562 C 0.597656 19.863281 0.480469 20.058594 0.480469 20.078125 C 0.480469 20.109375 0.519531 20.074219 0.539062 20.027344 C 0.554688 19.996094 0.585938 19.941406 0.609375 19.902344 C 0.652344 19.832031 0.65625 19.824219 0.617188 19.851562 M 18.796875 19.886719 C 18.796875 19.890625 18.890625 19.9375 19.007812 19.992188 C 19.121094 20.046875 19.214844 20.097656 19.214844 20.105469 C 19.214844 20.113281 19.238281 20.132812 19.269531 20.144531 C 19.421875 20.214844 19.285156 20.117188 19.078125 20.003906 C 18.851562 19.882812 18.796875 19.863281 18.796875 19.886719 M 1.613281 20.121094 C 1.582031 20.136719 1.550781 20.152344 1.539062 20.15625 C 1.527344 20.160156 1.523438 20.171875 1.53125 20.179688 C 1.546875 20.195312 1.675781 20.128906 1.675781 20.101562 C 1.675781 20.082031 1.679688 20.082031 1.613281 20.121094 M 19.457031 20.246094 C 19.476562 20.261719 19.503906 20.277344 19.515625 20.277344 C 19.527344 20.277344 19.519531 20.261719 19.496094 20.246094 C 19.476562 20.226562 19.449219 20.214844 19.4375 20.214844 C 19.425781 20.214844 19.433594 20.226562 19.457031 20.246094 M 0.355469 20.320312 C 0.332031 20.367188 0.316406 20.410156 0.320312 20.414062 C 0.324219 20.417969 0.347656 20.378906 0.371094 20.328125 C 0.429688 20.210938 0.414062 20.203125 0.355469 20.320312 M 1.296875 20.296875 C 1.257812 20.320312 1.230469 20.335938 1.242188 20.335938 C 1.261719 20.339844 1.382812 20.277344 1.382812 20.265625 C 1.382812 20.25 1.378906 20.25 1.296875 20.296875 M 20.515625 20.304688 C 20.515625 20.320312 20.53125 20.355469 20.554688 20.378906 C 20.605469 20.4375 20.609375 20.421875 20.566406 20.335938 C 20.53125 20.269531 20.515625 20.257812 20.515625 20.304688 M 19.644531 20.335938 C 19.648438 20.34375 19.683594 20.367188 19.71875 20.378906 C 19.753906 20.394531 19.78125 20.414062 19.78125 20.425781 C 19.78125 20.433594 19.789062 20.445312 19.800781 20.445312 C 19.851562 20.445312 19.816406 20.40625 19.726562 20.363281 C 19.675781 20.335938 19.636719 20.324219 19.644531 20.335938 M 1.078125 20.40625 C 1.054688 20.417969 1.023438 20.441406 1.007812 20.457031 C 0.992188 20.472656 0.96875 20.484375 0.949219 20.484375 C 0.933594 20.484375 0.921875 20.496094 0.921875 20.507812 C 0.921875 20.519531 0.929688 20.527344 0.9375 20.523438 C 1.050781 20.46875 1.109375 20.433594 1.117188 20.410156 C 1.132812 20.375 1.132812 20.375 1.078125 20.40625 M 19.84375 20.445312 C 19.84375 20.460938 20.117188 20.617188 20.128906 20.605469 C 20.132812 20.601562 20.070312 20.5625 19.988281 20.511719 C 19.910156 20.464844 19.84375 20.433594 19.84375 20.445312 M 0.214844 20.554688 C 0.140625 20.699219 0.140625 20.695312 0.160156 20.695312 C 0.171875 20.695312 0.191406 20.671875 0.203125 20.636719 C 0.214844 20.605469 0.246094 20.550781 0.273438 20.511719 C 0.296875 20.472656 0.308594 20.445312 0.296875 20.445312 C 0.28125 20.445312 0.246094 20.492188 0.214844 20.554688 M 20.683594 20.621094 C 20.710938 20.671875 20.734375 20.710938 20.738281 20.707031 C 20.75 20.699219 20.664062 20.527344 20.648438 20.527344 C 20.644531 20.527344 20.660156 20.570312 20.683594 20.621094 M 0.691406 20.632812 C 0.652344 20.65625 0.625 20.671875 0.632812 20.675781 C 0.65625 20.675781 0.773438 20.613281 0.773438 20.601562 C 0.773438 20.585938 0.773438 20.585938 0.691406 20.632812 M 20.273438 20.6875 C 20.363281 20.773438 20.449219 20.816406 20.449219 20.78125 C 20.449219 20.769531 20.4375 20.757812 20.417969 20.757812 C 20.402344 20.757812 20.386719 20.75 20.386719 20.742188 C 20.386719 20.734375 20.351562 20.707031 20.308594 20.6875 C 20.234375 20.652344 20.230469 20.652344 20.273438 20.6875 M 0.515625 20.730469 C 0.492188 20.746094 0.480469 20.761719 0.484375 20.769531 C 0.492188 20.773438 0.511719 20.765625 0.535156 20.75 C 0.558594 20.734375 0.570312 20.714844 0.566406 20.710938 C 0.558594 20.703125 0.535156 20.710938 0.515625 20.730469 M 0.339844 20.832031 C 0.304688 20.875 0.335938 20.875 0.386719 20.832031 C 0.417969 20.808594 0.421875 20.800781 0.398438 20.800781 C 0.378906 20.804688 0.355469 20.816406 0.339844 20.832031 M 20.808594 20.84375 C 20.808594 20.859375 20.824219 20.890625 20.847656 20.921875 C 20.871094 20.949219 20.882812 20.984375 20.875 21.003906 C 20.871094 21.019531 20.875 21.03125 20.886719 21.03125 C 20.921875 21.03125 20.917969 21 20.871094 20.90625 C 20.828125 20.820312 20.808594 20.800781 20.808594 20.84375 M 0.03125 20.910156 C 0.0117188 20.945312 0 20.976562 0.00390625 20.980469 C 0.0078125 20.984375 0.0273438 20.957031 0.046875 20.917969 C 0.0898438 20.824219 0.078125 20.820312 0.03125 20.910156 M 20.554688 20.851562 C 20.554688 20.867188 20.75 20.972656 20.757812 20.960938 C 20.761719 20.957031 20.722656 20.929688 20.667969 20.898438 C 20.570312 20.84375 20.554688 20.835938 20.554688 20.851562 "/>
<path style=" stroke:none;fill-rule:evenodd;fill:rgb(1.568627%,1.568627%,1.568627%);fill-opacity:1;" d="M 10.378906 0.207031 C 10.136719 0.816406 10.023438 1.09375 9.996094 1.144531 C 9.980469 1.179688 9.90625 1.359375 9.835938 1.546875 C 9.765625 1.730469 9.695312 1.910156 9.679688 1.941406 C 9.660156 1.972656 9.601562 2.125 9.542969 2.277344 C 9.484375 2.429688 9.414062 2.601562 9.386719 2.660156 C 9.363281 2.71875 9.285156 2.902344 9.21875 3.070312 C 9.152344 3.238281 9.09375 3.378906 9.085938 3.386719 C 9.078125 3.390625 9.070312 3.410156 9.066406 3.429688 C 9.0625 3.445312 9.046875 3.488281 9.03125 3.523438 C 9.015625 3.558594 8.9375 3.742188 8.859375 3.933594 C 8.652344 4.421875 8.515625 4.742188 8.4375 4.90625 C 8.402344 4.980469 8.324219 5.15625 8.265625 5.292969 C 8.207031 5.429688 8.152344 5.550781 8.140625 5.5625 C 8.132812 5.574219 8.082031 5.683594 8.03125 5.800781 L 7.933594 6.019531 L 7.996094 6.097656 C 8.070312 6.195312 8.753906 6.871094 9.042969 7.132812 C 9.410156 7.46875 9.867188 7.839844 10.386719 8.222656 C 10.617188 8.390625 10.609375 8.398438 10.316406 8.277344 C 9.484375 7.933594 8.371094 7.296875 7.796875 6.832031 C 7.710938 6.765625 7.636719 6.710938 7.625 6.710938 C 7.617188 6.710938 7.355469 7.230469 7.042969 7.863281 C 6.488281 8.988281 5.957031 10.03125 5.632812 10.640625 C 5.542969 10.808594 5.363281 11.152344 5.230469 11.398438 C 4.929688 11.980469 4.832031 12.160156 4.222656 13.304688 C 4.140625 13.453125 4.007812 13.703125 3.925781 13.859375 C 3.71875 14.246094 3.558594 14.542969 3.328125 14.964844 C 3.222656 15.160156 3.074219 15.429688 3.003906 15.5625 C 2.761719 16.015625 2.714844 16.101562 2.566406 16.375 C 2.480469 16.523438 2.320312 16.816406 2.210938 17.027344 C 2.097656 17.234375 1.96875 17.464844 1.925781 17.542969 C 1.882812 17.617188 1.761719 17.839844 1.652344 18.035156 C 1.355469 18.582031 1.132812 18.984375 1.035156 19.160156 C 0.984375 19.246094 0.894531 19.414062 0.832031 19.527344 C 0.769531 19.644531 0.640625 19.882812 0.542969 20.054688 C 0.152344 20.761719 0.046875 20.960938 0.0546875 20.964844 C 0.0546875 20.96875 0.125 20.9375 0.203125 20.890625 C 1.035156 20.40625 3.105469 19.285156 3.171875 19.285156 C 3.175781 19.285156 3.289062 19.234375 3.417969 19.167969 C 4.046875 18.851562 4.792969 18.535156 5.789062 18.152344 C 6.179688 18.003906 6.960938 17.753906 7.316406 17.667969 C 7.511719 17.621094 7.71875 17.570312 7.777344 17.550781 C 7.832031 17.535156 7.964844 17.503906 8.0625 17.484375 L 8.246094 17.449219 L 8.238281 17.371094 C 8.234375 17.332031 8.226562 17.285156 8.21875 17.269531 C 8.210938 17.257812 8.199219 17.199219 8.195312 17.144531 C 8.191406 17.085938 8.183594 17.027344 8.175781 17.015625 C 8.167969 17.003906 8.164062 16.972656 8.164062 16.945312 C 8.167969 16.921875 8.164062 16.882812 8.152344 16.863281 C 8.144531 16.839844 8.144531 16.796875 8.148438 16.761719 C 8.15625 16.730469 8.152344 16.695312 8.140625 16.6875 C 8.128906 16.679688 8.121094 16.621094 8.125 16.550781 C 8.128906 16.484375 8.125 16.421875 8.117188 16.414062 C 8.09375 16.390625 8.097656 15.820312 8.121094 15.804688 C 8.132812 15.796875 8.136719 15.742188 8.128906 15.667969 C 8.121094 15.601562 8.125 15.527344 8.132812 15.507812 C 8.140625 15.488281 8.148438 15.402344 8.152344 15.316406 C 8.15625 15.234375 8.167969 15.152344 8.175781 15.136719 C 8.1875 15.125 8.191406 15.089844 8.1875 15.066406 C 8.183594 15.042969 8.191406 15.015625 8.203125 15.007812 C 8.214844 15 8.21875 14.980469 8.210938 14.964844 C 8.207031 14.945312 8.207031 14.917969 8.214844 14.894531 C 8.222656 14.875 8.234375 14.835938 8.238281 14.804688 C 8.246094 14.710938 8.398438 14.21875 8.417969 14.21875 C 8.429688 14.21875 8.433594 14.210938 8.425781 14.199219 C 8.414062 14.175781 8.496094 13.921875 8.515625 13.921875 C 8.523438 13.921875 8.53125 13.90625 8.535156 13.882812 C 8.539062 13.8125 8.808594 13.332031 8.9375 13.152344 C 9.273438 12.703125 9.757812 12.355469 10.132812 12.289062 C 10.160156 12.285156 10.214844 12.273438 10.257812 12.269531 C 11.046875 12.128906 11.894531 12.753906 12.378906 13.835938 C 12.527344 14.15625 12.632812 14.457031 12.613281 14.492188 C 12.605469 14.503906 12.609375 14.511719 12.617188 14.511719 C 12.644531 14.511719 12.695312 14.714844 12.675781 14.742188 C 12.667969 14.753906 12.671875 14.765625 12.679688 14.765625 C 12.699219 14.765625 12.726562 14.890625 12.78125 15.183594 C 12.898438 15.8125 12.882812 16.742188 12.746094 17.339844 C 12.722656 17.453125 12.734375 17.480469 12.816406 17.492188 C 12.914062 17.5 13.027344 17.523438 13.046875 17.535156 C 13.058594 17.542969 13.089844 17.550781 13.113281 17.554688 C 13.351562 17.585938 14.921875 18.050781 15.082031 18.136719 C 15.105469 18.148438 15.132812 18.160156 15.144531 18.164062 C 15.222656 18.183594 15.460938 18.285156 15.464844 18.300781 C 15.46875 18.3125 15.480469 18.316406 15.492188 18.308594 C 15.507812 18.300781 15.726562 18.378906 15.898438 18.457031 C 15.933594 18.472656 16.101562 18.542969 16.273438 18.617188 C 16.449219 18.6875 16.597656 18.753906 16.609375 18.761719 C 16.621094 18.769531 16.75 18.832031 16.898438 18.894531 C 17.203125 19.03125 18.261719 19.550781 18.589844 19.730469 C 18.707031 19.796875 19.011719 19.957031 19.257812 20.089844 C 19.917969 20.445312 20.054688 20.523438 20.683594 20.886719 C 20.761719 20.933594 20.832031 20.96875 20.839844 20.96875 C 20.847656 20.96875 20.808594 20.886719 20.753906 20.785156 C 20.699219 20.683594 20.597656 20.492188 20.523438 20.359375 C 20.453125 20.226562 20.242188 19.832031 20.054688 19.488281 C 19.867188 19.140625 19.601562 18.644531 19.460938 18.382812 C 19.324219 18.121094 19.1875 17.867188 19.160156 17.820312 C 19.125 17.757812 19.023438 17.660156 18.855469 17.523438 C 18.714844 17.414062 18.527344 17.257812 18.433594 17.183594 C 17.488281 16.410156 16.527344 15.761719 15.746094 15.367188 C 15.574219 15.28125 15.5 15.226562 15.546875 15.226562 C 15.621094 15.230469 16.417969 15.480469 16.429688 15.503906 C 16.433594 15.515625 16.445312 15.515625 16.457031 15.511719 C 16.53125 15.464844 18.148438 16.164062 18.324219 16.316406 C 18.371094 16.359375 18.339844 16.296875 18.019531 15.691406 C 16.976562 13.734375 15.902344 11.695312 15.558594 11.019531 C 15.484375 10.875 15.40625 10.730469 15.386719 10.695312 C 15.296875 10.542969 13.574219 7.113281 13.335938 6.613281 C 12.398438 4.636719 12.074219 3.910156 11.226562 1.902344 C 10.863281 1.042969 10.761719 0.800781 10.617188 0.453125 C 10.4375 0.0234375 10.445312 0.03125 10.378906 0.207031 M 20.785156 18.53125 C 20.785156 18.542969 20.832031 18.550781 20.886719 18.550781 L 20.984375 18.550781 L 20.976562 18.84375 C 20.972656 19.128906 20.972656 19.140625 21.015625 19.140625 C 21.054688 19.140625 21.058594 19.128906 21.058594 18.878906 C 21.058594 18.554688 21.058594 18.550781 21.175781 18.550781 C 21.226562 18.550781 21.265625 18.542969 21.265625 18.53125 C 21.265625 18.515625 21.171875 18.507812 21.027344 18.507812 C 20.878906 18.507812 20.785156 18.515625 20.785156 18.53125 M 21.394531 18.824219 C 21.394531 19.128906 21.394531 19.140625 21.4375 19.140625 C 21.480469 19.140625 21.480469 19.132812 21.472656 18.875 C 21.464844 18.550781 21.46875 18.550781 21.574219 18.871094 C 21.675781 19.183594 21.699219 19.199219 21.769531 18.988281 C 21.914062 18.535156 21.9375 18.519531 21.9375 18.875 C 21.9375 19.097656 21.941406 19.140625 21.96875 19.140625 C 21.996094 19.140625 22 19.089844 22 18.824219 L 22 18.507812 L 21.945312 18.511719 C 21.894531 18.519531 21.882812 18.542969 21.8125 18.738281 C 21.769531 18.863281 21.722656 18.984375 21.714844 19.011719 C 21.695312 19.054688 21.679688 19.027344 21.597656 18.789062 C 21.511719 18.542969 21.5 18.519531 21.449219 18.511719 L 21.394531 18.507812 L 21.394531 18.824219 "/>
<path style=" stroke:none;fill-rule:evenodd;fill:rgb(34.509804%,34.509804%,34.509804%);fill-opacity:1;" d="M 10.722656 0.714844 C 10.734375 0.75 10.746094 0.777344 10.75 0.773438 C 10.761719 0.761719 10.722656 0.652344 10.707031 0.652344 C 10.703125 0.652344 10.707031 0.679688 10.722656 0.714844 M 10.003906 1.085938 C 9.992188 1.117188 9.988281 1.144531 9.992188 1.148438 C 9.996094 1.15625 10.011719 1.128906 10.023438 1.09375 C 10.050781 1.015625 10.035156 1.007812 10.003906 1.085938 M 11.011719 1.398438 C 11.011719 1.410156 11.027344 1.445312 11.042969 1.472656 C 11.058594 1.5 11.070312 1.515625 11.070312 1.503906 C 11.070312 1.492188 11.058594 1.460938 11.042969 1.429688 C 11.027344 1.402344 11.011719 1.386719 11.011719 1.398438 M 9.703125 1.84375 C 9.683594 1.886719 9.675781 1.925781 9.679688 1.929688 C 9.6875 1.9375 9.691406 1.9375 9.691406 1.929688 C 9.691406 1.925781 9.707031 1.886719 9.722656 1.84375 C 9.742188 1.800781 9.75 1.765625 9.746094 1.765625 C 9.738281 1.765625 9.71875 1.800781 9.703125 1.84375 M 11.953125 3.605469 C 11.953125 3.617188 11.96875 3.652344 11.984375 3.679688 C 12 3.710938 12.015625 3.722656 12.015625 3.710938 C 12.015625 3.699219 12 3.667969 11.984375 3.636719 C 11.96875 3.609375 11.953125 3.59375 11.953125 3.605469 M 8.8125 3.996094 C 8.800781 4.019531 8.792969 4.050781 8.796875 4.0625 C 8.800781 4.074219 8.8125 4.054688 8.828125 4.019531 C 8.855469 3.945312 8.847656 3.933594 8.8125 3.996094 M 8.492188 4.738281 C 8.472656 4.800781 8.488281 4.804688 8.515625 4.742188 C 8.527344 4.714844 8.53125 4.691406 8.519531 4.691406 C 8.511719 4.691406 8.496094 4.710938 8.492188 4.738281 M 13.148438 6.203125 C 13.148438 6.234375 13.269531 6.480469 13.269531 6.453125 C 13.269531 6.449219 13.242188 6.382812 13.210938 6.308594 C 13.175781 6.234375 13.148438 6.1875 13.148438 6.203125 M 8.40625 6.542969 C 8.496094 6.632812 8.574219 6.710938 8.582031 6.710938 C 8.585938 6.710938 8.515625 6.632812 8.425781 6.542969 C 8.332031 6.449219 8.253906 6.371094 8.25 6.371094 C 8.242188 6.371094 8.3125 6.449219 8.40625 6.542969 M 7.558594 6.773438 C 7.535156 6.816406 7.515625 6.863281 7.515625 6.871094 C 7.515625 6.878906 7.535156 6.851562 7.558594 6.804688 C 7.585938 6.757812 7.613281 6.714844 7.628906 6.703125 C 7.644531 6.695312 7.644531 6.6875 7.625 6.6875 C 7.609375 6.6875 7.582031 6.726562 7.558594 6.773438 M 13.5 6.960938 C 13.535156 7.03125 13.570312 7.089844 13.574219 7.089844 C 13.589844 7.089844 13.46875 6.835938 13.453125 6.835938 C 13.445312 6.835938 13.464844 6.890625 13.5 6.960938 M 8.886719 7.003906 C 8.941406 7.0625 8.992188 7.109375 9 7.109375 C 9.003906 7.109375 8.964844 7.0625 8.90625 7.003906 C 8.851562 6.945312 8.800781 6.898438 8.792969 6.898438 C 8.789062 6.898438 8.828125 6.945312 8.886719 7.003906 M 6.960938 7.996094 C 6.929688 8.054688 6.910156 8.105469 6.914062 8.109375 C 6.917969 8.113281 6.945312 8.066406 6.976562 8.003906 C 7.007812 7.9375 7.027344 7.886719 7.023438 7.886719 C 7.015625 7.886719 6.988281 7.933594 6.960938 7.996094 M 10.03125 8.148438 C 10.046875 8.167969 10.195312 8.222656 10.195312 8.214844 C 10.195312 8.207031 10.160156 8.1875 10.117188 8.171875 C 10.042969 8.140625 10.011719 8.132812 10.03125 8.148438 M 14.445312 8.855469 C 14.46875 8.902344 14.492188 8.9375 14.496094 8.9375 C 14.503906 8.9375 14.488281 8.902344 14.464844 8.855469 C 14.441406 8.808594 14.417969 8.769531 14.410156 8.769531 C 14.40625 8.769531 14.417969 8.808594 14.445312 8.855469 M 5.976562 9.949219 C 5.957031 9.984375 5.949219 10.011719 5.953125 10.011719 C 5.960938 10.011719 5.980469 9.984375 5.996094 9.949219 C 6.015625 9.914062 6.023438 9.886719 6.019531 9.886719 C 6.011719 9.886719 5.992188 9.914062 5.976562 9.949219 M 15.03125 10.011719 C 15.054688 10.058594 15.078125 10.09375 15.082031 10.09375 C 15.089844 10.09375 15.074219 10.058594 15.050781 10.011719 C 15.027344 9.964844 15.003906 9.925781 14.996094 9.925781 C 14.992188 9.925781 15.007812 9.964844 15.03125 10.011719 M 15.34375 10.621094 C 15.398438 10.730469 15.414062 10.730469 15.367188 10.621094 C 15.347656 10.574219 15.324219 10.539062 15.316406 10.539062 C 15.308594 10.539062 15.320312 10.574219 15.34375 10.621094 M 5.367188 11.105469 C 5.351562 11.144531 5.339844 11.175781 5.34375 11.179688 C 5.347656 11.183594 5.367188 11.15625 5.386719 11.117188 C 5.429688 11.023438 5.414062 11.019531 5.367188 11.105469 M 15.636719 11.191406 C 15.648438 11.214844 15.664062 11.230469 15.671875 11.226562 C 15.683594 11.210938 15.65625 11.148438 15.632812 11.148438 C 15.621094 11.148438 15.625 11.167969 15.636719 11.191406 M 4.761719 12.261719 C 4.746094 12.296875 4.734375 12.324219 4.738281 12.324219 C 4.746094 12.324219 4.765625 12.296875 4.78125 12.261719 C 4.800781 12.226562 4.8125 12.199219 4.804688 12.199219 C 4.800781 12.199219 4.78125 12.226562 4.761719 12.261719 M 10.398438 12.257812 C 10.4375 12.261719 10.492188 12.261719 10.523438 12.257812 C 10.554688 12.25 10.523438 12.246094 10.457031 12.246094 C 10.386719 12.246094 10.359375 12.25 10.398438 12.257812 M 4.449219 12.851562 C 4.429688 12.886719 4.421875 12.914062 4.425781 12.914062 C 4.433594 12.914062 4.453125 12.886719 4.46875 12.851562 C 4.488281 12.816406 4.496094 12.789062 4.492188 12.789062 C 4.484375 12.789062 4.464844 12.816406 4.449219 12.851562 M 11.785156 12.925781 C 11.824219 12.964844 11.859375 13 11.867188 13 C 11.871094 13 11.84375 12.964844 11.804688 12.925781 C 11.765625 12.882812 11.730469 12.851562 11.722656 12.851562 C 11.71875 12.851562 11.746094 12.882812 11.785156 12.925781 M 4.132812 13.441406 C 4.117188 13.472656 4.105469 13.503906 4.113281 13.503906 C 4.117188 13.503906 4.136719 13.472656 4.15625 13.441406 C 4.171875 13.40625 4.183594 13.375 4.175781 13.375 C 4.171875 13.375 4.152344 13.40625 4.132812 13.441406 M 16.90625 13.597656 C 16.953125 13.679688 16.957031 13.683594 16.957031 13.65625 C 16.957031 13.644531 16.9375 13.613281 16.914062 13.585938 L 16.867188 13.535156 L 16.90625 13.597656 M 8.582031 13.738281 C 8.582031 13.746094 8.566406 13.785156 8.550781 13.828125 C 8.53125 13.867188 8.523438 13.902344 8.53125 13.902344 C 8.546875 13.902344 8.605469 13.75 8.59375 13.738281 C 8.585938 13.730469 8.582031 13.734375 8.582031 13.738281 M 3.820312 14.027344 C 3.800781 14.0625 3.792969 14.09375 3.796875 14.09375 C 3.804688 14.09375 3.824219 14.0625 3.839844 14.027344 C 3.859375 13.992188 3.867188 13.964844 3.863281 13.964844 C 3.855469 13.964844 3.839844 13.992188 3.820312 14.027344 M 12.488281 14.117188 C 12.496094 14.144531 12.511719 14.175781 12.519531 14.1875 C 12.53125 14.199219 12.527344 14.175781 12.515625 14.140625 C 12.488281 14.0625 12.464844 14.042969 12.488281 14.117188 M 8.238281 14.765625 C 8.222656 14.855469 8.238281 14.871094 8.257812 14.785156 C 8.265625 14.75 8.269531 14.714844 8.261719 14.710938 C 8.257812 14.703125 8.246094 14.730469 8.238281 14.765625 M 8.152344 15.289062 C 8.144531 15.316406 8.144531 15.339844 8.148438 15.347656 C 8.15625 15.351562 8.167969 15.335938 8.175781 15.3125 C 8.183594 15.285156 8.183594 15.261719 8.179688 15.257812 C 8.171875 15.25 8.160156 15.265625 8.152344 15.289062 M 17.835938 15.355469 C 17.859375 15.398438 17.882812 15.4375 17.886719 15.4375 C 17.894531 15.4375 17.878906 15.398438 17.855469 15.355469 C 17.832031 15.308594 17.808594 15.269531 17.800781 15.269531 C 17.796875 15.269531 17.8125 15.308594 17.835938 15.355469 M 12.800781 15.425781 C 12.820312 15.503906 12.832031 15.523438 12.832031 15.46875 C 12.832031 15.445312 12.820312 15.414062 12.808594 15.394531 C 12.792969 15.371094 12.792969 15.382812 12.800781 15.425781 M 12.824219 15.636719 C 12.839844 15.742188 12.851562 15.757812 12.851562 15.679688 C 12.851562 15.644531 12.84375 15.601562 12.832031 15.585938 C 12.816406 15.5625 12.8125 15.578125 12.824219 15.636719 M 16.800781 15.625 C 16.808594 15.636719 16.847656 15.652344 16.882812 15.660156 C 16.945312 15.671875 16.945312 15.671875 16.875 15.640625 C 16.792969 15.601562 16.769531 15.597656 16.800781 15.625 M 8.117188 15.808594 C 8.109375 15.816406 8.101562 15.863281 8.101562 15.910156 C 8.101562 15.988281 8.105469 15.992188 8.125 15.945312 C 8.148438 15.886719 8.140625 15.78125 8.117188 15.808594 M 12.839844 16.175781 C 12.839844 16.339844 12.847656 16.453125 12.855469 16.425781 C 12.863281 16.398438 12.871094 16.285156 12.871094 16.175781 C 12.871094 16.0625 12.863281 15.949219 12.855469 15.921875 C 12.847656 15.894531 12.839844 16.007812 12.839844 16.175781 M 18.160156 15.964844 C 18.175781 16 18.195312 16.027344 18.203125 16.027344 C 18.207031 16.027344 18.199219 16 18.179688 15.964844 C 18.160156 15.929688 18.144531 15.902344 18.136719 15.902344 C 18.132812 15.902344 18.140625 15.929688 18.160156 15.964844 M 17.644531 15.972656 C 17.675781 15.992188 17.707031 16.003906 17.71875 16.003906 C 17.730469 16.003906 17.714844 15.992188 17.6875 15.972656 C 17.660156 15.957031 17.625 15.945312 17.613281 15.945312 C 17.601562 15.945312 17.617188 15.957031 17.644531 15.972656 M 2.574219 16.320312 C 2.550781 16.367188 2.535156 16.40625 2.542969 16.40625 C 2.546875 16.40625 2.570312 16.367188 2.59375 16.320312 C 2.617188 16.273438 2.632812 16.238281 2.628906 16.238281 C 2.621094 16.238281 2.597656 16.273438 2.574219 16.320312 M 8.101562 16.324219 C 8.101562 16.367188 8.109375 16.410156 8.121094 16.414062 C 8.148438 16.433594 8.148438 16.320312 8.121094 16.277344 C 8.105469 16.253906 8.101562 16.265625 8.101562 16.324219 M 12.835938 16.660156 C 12.832031 16.691406 12.824219 16.734375 12.820312 16.757812 C 12.808594 16.792969 12.808594 16.792969 12.832031 16.757812 C 12.84375 16.738281 12.851562 16.695312 12.847656 16.664062 L 12.835938 16.605469 L 12.835938 16.660156 M 12.8125 16.871094 C 12.8125 16.902344 12.804688 16.945312 12.796875 16.964844 C 12.789062 17.003906 12.789062 17.003906 12.808594 16.96875 C 12.824219 16.945312 12.832031 16.90625 12.824219 16.871094 L 12.816406 16.816406 L 12.8125 16.871094 M 8.195312 17.171875 C 8.203125 17.21875 8.21875 17.265625 8.226562 17.273438 C 8.234375 17.285156 8.234375 17.253906 8.226562 17.207031 C 8.21875 17.15625 8.203125 17.113281 8.195312 17.105469 C 8.1875 17.097656 8.1875 17.125 8.195312 17.171875 M 8.238281 17.382812 C 8.246094 17.429688 8.257812 17.472656 8.261719 17.476562 C 8.277344 17.496094 8.265625 17.382812 8.246094 17.339844 C 8.234375 17.3125 8.230469 17.324219 8.238281 17.382812 M 1.957031 17.457031 C 1.9375 17.492188 1.929688 17.519531 1.933594 17.519531 C 1.941406 17.519531 1.960938 17.492188 1.976562 17.457031 C 1.996094 17.421875 2.007812 17.394531 2 17.394531 C 1.996094 17.394531 1.976562 17.421875 1.957031 17.457031 M 7.996094 17.5 C 7.953125 17.511719 7.953125 17.515625 7.984375 17.515625 C 8.007812 17.515625 8.046875 17.507812 8.070312 17.5 C 8.121094 17.476562 8.066406 17.476562 7.996094 17.5 M 13.984375 17.78125 C 13.984375 17.796875 14.195312 17.859375 14.207031 17.847656 C 14.214844 17.84375 14.179688 17.828125 14.128906 17.816406 C 14.082031 17.800781 14.03125 17.785156 14.011719 17.78125 C 13.996094 17.773438 13.984375 17.773438 13.984375 17.78125 M 6.742188 17.824219 C 6.699219 17.839844 6.679688 17.855469 6.699219 17.855469 C 6.714844 17.855469 6.757812 17.839844 6.792969 17.824219 C 6.875 17.789062 6.835938 17.789062 6.742188 17.824219 M 5.871094 18.121094 C 5.820312 18.144531 5.816406 18.148438 5.859375 18.136719 C 5.890625 18.132812 5.921875 18.117188 5.933594 18.105469 C 5.960938 18.082031 5.945312 18.085938 5.871094 18.121094 M 14.964844 18.105469 C 14.984375 18.117188 15.023438 18.132812 15.050781 18.140625 C 15.085938 18.148438 15.09375 18.148438 15.070312 18.132812 C 15.054688 18.121094 15.015625 18.109375 14.988281 18.101562 C 14.953125 18.089844 14.945312 18.09375 14.964844 18.105469 M 5.054688 18.4375 C 5.003906 18.460938 5 18.464844 5.042969 18.453125 C 5.074219 18.445312 5.105469 18.433594 5.117188 18.421875 C 5.144531 18.398438 5.128906 18.398438 5.054688 18.4375 M 20.785156 18.488281 C 20.785156 18.5 20.878906 18.507812 21.027344 18.507812 C 21.171875 18.507812 21.265625 18.515625 21.265625 18.53125 C 21.265625 18.542969 21.226562 18.550781 21.175781 18.550781 C 21.109375 18.550781 21.078125 18.5625 21.070312 18.585938 C 21.050781 18.640625 21.054688 19.140625 21.078125 19.140625 C 21.09375 19.140625 21.101562 19.035156 21.101562 18.867188 L 21.101562 18.59375 L 21.183594 18.59375 C 21.265625 18.59375 21.3125 18.542969 21.277344 18.488281 C 21.261719 18.460938 20.785156 18.460938 20.785156 18.488281 M 21.382812 18.515625 C 21.375 18.539062 21.375 18.6875 21.378906 18.84375 L 21.382812 19.128906 L 21.386719 18.816406 L 21.394531 18.503906 L 21.453125 18.511719 C 21.496094 18.519531 21.511719 18.515625 21.503906 18.496094 C 21.484375 18.445312 21.394531 18.460938 21.382812 18.515625 M 21.890625 18.496094 C 21.882812 18.515625 21.894531 18.519531 21.9375 18.511719 C 21.972656 18.507812 22 18.496094 22 18.484375 C 22 18.457031 21.902344 18.464844 21.890625 18.496094 M 20.785156 18.570312 C 20.785156 18.582031 20.828125 18.59375 20.878906 18.59375 C 20.929688 18.59375 20.976562 18.582031 20.984375 18.570312 C 20.992188 18.558594 20.957031 18.550781 20.890625 18.550781 C 20.832031 18.550781 20.785156 18.558594 20.785156 18.570312 M 21.480469 18.667969 C 21.492188 18.695312 21.507812 18.714844 21.511719 18.714844 C 21.523438 18.699219 21.492188 18.613281 21.476562 18.613281 C 21.464844 18.613281 21.46875 18.636719 21.480469 18.667969 M 21.898438 18.875 C 21.894531 19.054688 21.898438 19.140625 21.914062 19.140625 C 21.929688 19.140625 21.9375 19.050781 21.9375 18.875 C 21.9375 18.730469 21.929688 18.613281 21.921875 18.613281 C 21.910156 18.613281 21.902344 18.730469 21.898438 18.875 M 21.855469 18.722656 C 21.828125 18.800781 21.828125 18.816406 21.851562 18.792969 C 21.871094 18.769531 21.902344 18.65625 21.886719 18.65625 C 21.882812 18.65625 21.867188 18.6875 21.855469 18.722656 M 21.574219 18.71875 C 21.582031 18.746094 21.59375 18.785156 21.605469 18.804688 C 21.621094 18.824219 21.621094 18.820312 21.609375 18.78125 C 21.601562 18.753906 21.589844 18.714844 21.578125 18.699219 C 21.5625 18.675781 21.5625 18.683594 21.574219 18.71875 M 21.78125 18.773438 C 21.765625 18.828125 21.753906 18.878906 21.757812 18.882812 C 21.761719 18.886719 21.78125 18.84375 21.796875 18.789062 C 21.816406 18.734375 21.828125 18.6875 21.824219 18.683594 C 21.820312 18.679688 21.800781 18.71875 21.78125 18.773438 M 3.695312 19.035156 C 3.625 19.066406 3.574219 19.09375 3.582031 19.097656 C 3.601562 19.097656 3.832031 18.996094 3.832031 18.980469 C 3.832031 18.96875 3.835938 18.964844 3.695312 19.035156 M 17.082031 18.988281 C 17.082031 19.003906 17.25 19.082031 17.261719 19.070312 C 17.265625 19.066406 17.226562 19.042969 17.175781 19.019531 C 17.121094 18.992188 17.082031 18.980469 17.082031 18.988281 M 17.730469 19.296875 C 17.730469 19.3125 17.984375 19.4375 17.992188 19.429688 C 17.996094 19.425781 17.941406 19.390625 17.863281 19.355469 C 17.789062 19.316406 17.730469 19.292969 17.730469 19.296875 M 2.972656 19.382812 C 2.921875 19.410156 2.886719 19.433594 2.894531 19.433594 C 2.917969 19.433594 3.078125 19.351562 3.078125 19.339844 C 3.078125 19.324219 3.078125 19.324219 2.972656 19.382812 M 20.023438 19.433594 C 20.039062 19.46875 20.058594 19.496094 20.066406 19.496094 C 20.070312 19.496094 20.0625 19.46875 20.042969 19.433594 C 20.023438 19.398438 20.003906 19.371094 20 19.371094 C 19.992188 19.371094 20.003906 19.398438 20.023438 19.433594 M 2.429688 19.664062 C 2.386719 19.6875 2.363281 19.707031 2.375 19.707031 C 2.386719 19.707031 2.429688 19.6875 2.46875 19.664062 C 2.511719 19.644531 2.535156 19.625 2.523438 19.625 C 2.511719 19.625 2.46875 19.644531 2.429688 19.664062 M 20.316406 19.980469 C 20.332031 20.015625 20.351562 20.042969 20.359375 20.042969 C 20.363281 20.042969 20.355469 20.015625 20.335938 19.980469 C 20.316406 19.945312 20.296875 19.917969 20.292969 19.917969 C 20.289062 19.917969 20.296875 19.945312 20.316406 19.980469 "/>
<path style=" stroke:none;fill-rule:evenodd;fill:rgb(48.627451%,48.627451%,48.627451%);fill-opacity:1;" d="M 10.613281 0.4375 C 10.628906 0.472656 10.644531 0.511719 10.65625 0.515625 C 10.667969 0.523438 10.664062 0.5 10.652344 0.46875 C 10.613281 0.382812 10.585938 0.359375 10.613281 0.4375 M 10.117188 0.773438 C 10.109375 0.792969 10.101562 0.820312 10.09375 0.832031 C 10.089844 0.84375 10.101562 0.832031 10.121094 0.8125 C 10.152344 0.769531 10.164062 0.734375 10.140625 0.734375 C 10.136719 0.734375 10.125 0.753906 10.117188 0.773438 M 8.5625 4.558594 C 8.515625 4.679688 8.515625 4.6875 8.5625 4.597656 C 8.585938 4.554688 8.601562 4.507812 8.597656 4.496094 C 8.59375 4.488281 8.578125 4.511719 8.5625 4.558594 M 12.777344 5.410156 C 12.8125 5.5 12.871094 5.609375 12.871094 5.59375 C 12.875 5.570312 12.769531 5.34375 12.757812 5.34375 C 12.753906 5.34375 12.761719 5.375 12.777344 5.410156 M 7.925781 5.964844 C 7.894531 6 7.921875 6.054688 8.019531 6.164062 C 8.078125 6.226562 8.113281 6.257812 8.097656 6.234375 C 8.085938 6.214844 8.039062 6.160156 8 6.117188 C 7.949219 6.0625 7.929688 6.027344 7.9375 5.996094 C 7.949219 5.949219 7.949219 5.945312 7.925781 5.964844 M 8.6875 6.84375 C 8.6875 6.847656 8.730469 6.886719 8.785156 6.933594 C 8.839844 6.976562 8.878906 7.003906 8.867188 6.988281 C 8.851562 6.960938 8.6875 6.828125 8.6875 6.84375 M 9 7.140625 C 9 7.144531 9.03125 7.167969 9.070312 7.195312 L 9.136719 7.242188 L 9.085938 7.1875 C 9.039062 7.136719 9 7.113281 9 7.140625 M 7.285156 7.320312 C 7.257812 7.367188 7.242188 7.410156 7.246094 7.414062 C 7.253906 7.421875 7.277344 7.382812 7.300781 7.328125 C 7.359375 7.210938 7.34375 7.203125 7.285156 7.320312 M 13.761719 7.464844 C 13.78125 7.5 13.800781 7.53125 13.804688 7.53125 C 13.8125 7.53125 13.800781 7.5 13.785156 7.464844 C 13.765625 7.433594 13.746094 7.402344 13.742188 7.402344 C 13.734375 7.402344 13.746094 7.433594 13.761719 7.464844 M 9.355469 7.445312 C 9.355469 7.457031 9.378906 7.476562 9.402344 7.488281 C 9.449219 7.515625 9.449219 7.515625 9.410156 7.46875 C 9.367188 7.417969 9.355469 7.414062 9.355469 7.445312 M 14.027344 7.980469 C 14.027344 7.992188 14.042969 8.035156 14.066406 8.078125 C 14.089844 8.117188 14.105469 8.140625 14.105469 8.128906 C 14.105469 8.117188 14.089844 8.074219 14.066406 8.035156 C 14.042969 7.992188 14.027344 7.96875 14.027344 7.980469 M 6.371094 9.152344 C 6.355469 9.1875 6.34375 9.21875 6.347656 9.222656 C 6.351562 9.230469 6.371094 9.199219 6.390625 9.160156 C 6.433594 9.070312 6.417969 9.0625 6.371094 9.152344 M 6.039062 9.800781 C 6.019531 9.835938 6.011719 9.863281 6.015625 9.863281 C 6.023438 9.863281 6.042969 9.835938 6.058594 9.800781 C 6.078125 9.765625 6.085938 9.738281 6.082031 9.738281 C 6.078125 9.738281 6.058594 9.765625 6.039062 9.800781 M 16.234375 12.304688 C 16.25 12.339844 16.269531 12.367188 16.277344 12.367188 C 16.28125 12.367188 16.273438 12.339844 16.253906 12.304688 C 16.234375 12.269531 16.21875 12.242188 16.210938 12.242188 C 16.207031 12.242188 16.214844 12.269531 16.234375 12.304688 M 9.332031 12.722656 L 9.285156 12.765625 L 9.339844 12.738281 C 9.371094 12.726562 9.398438 12.707031 9.398438 12.699219 C 9.398438 12.675781 9.386719 12.679688 9.332031 12.722656 M 9.1875 12.867188 L 9.117188 12.945312 L 9.195312 12.875 C 9.269531 12.804688 9.28125 12.789062 9.265625 12.789062 C 9.261719 12.789062 9.226562 12.824219 9.1875 12.867188 M 3.949219 13.746094 C 3.925781 13.800781 3.949219 13.808594 3.976562 13.757812 C 3.988281 13.734375 3.992188 13.714844 3.980469 13.714844 C 3.96875 13.714844 3.953125 13.730469 3.949219 13.746094 M 3.863281 13.921875 C 3.84375 13.957031 3.835938 13.988281 3.839844 13.988281 C 3.847656 13.988281 3.863281 13.957031 3.882812 13.921875 C 3.902344 13.890625 3.910156 13.859375 3.90625 13.859375 C 3.898438 13.859375 3.878906 13.890625 3.863281 13.921875 M 8.136719 15.570312 C 8.128906 15.59375 8.121094 15.625 8.125 15.644531 C 8.125 15.667969 8.132812 15.664062 8.144531 15.628906 C 8.15625 15.601562 8.160156 15.570312 8.15625 15.554688 C 8.152344 15.542969 8.144531 15.550781 8.136719 15.570312 M 18.003906 15.660156 C 18.019531 15.6875 18.03125 15.707031 18.035156 15.707031 C 18.046875 15.691406 18.015625 15.605469 18 15.605469 C 17.988281 15.605469 17.992188 15.628906 18.003906 15.660156 M 8.113281 16.023438 C 8.109375 16.054688 8.109375 16.121094 8.121094 16.175781 C 8.136719 16.265625 8.136719 16.261719 8.140625 16.117188 C 8.144531 15.957031 8.132812 15.921875 8.113281 16.023438 M 6.078125 18.054688 C 6.039062 18.066406 6.003906 18.085938 5.996094 18.09375 C 5.972656 18.113281 6.117188 18.066406 6.144531 18.042969 C 6.167969 18.019531 6.160156 18.023438 6.078125 18.054688 M 16.253906 18.632812 C 16.28125 18.652344 16.390625 18.699219 16.390625 18.6875 C 16.390625 18.675781 16.273438 18.613281 16.25 18.613281 C 16.242188 18.613281 16.242188 18.621094 16.253906 18.632812 M 17.519531 19.222656 C 17.539062 19.234375 17.566406 19.246094 17.582031 19.246094 C 17.609375 19.246094 17.609375 19.242188 17.582031 19.222656 C 17.566406 19.210938 17.539062 19.203125 17.519531 19.203125 C 17.492188 19.203125 17.492188 19.207031 17.519531 19.222656 M 19.320312 20.144531 C 19.320312 20.15625 19.34375 20.175781 19.375 20.1875 C 19.40625 20.203125 19.421875 20.203125 19.414062 20.191406 C 19.394531 20.160156 19.320312 20.125 19.320312 20.144531 M 20.472656 20.257812 C 20.484375 20.28125 20.5 20.296875 20.503906 20.289062 C 20.519531 20.277344 20.492188 20.210938 20.46875 20.210938 C 20.457031 20.210938 20.460938 20.230469 20.472656 20.257812 "/>
<path style=" stroke:none;fill-rule:evenodd;fill:rgb(45.490196%,45.490196%,45.490196%);fill-opacity:1;" d="M 8.664062 6.796875 C 8.75 6.890625 8.769531 6.910156 8.769531 6.890625 C 8.769531 6.890625 8.726562 6.84375 8.671875 6.792969 L 8.570312 6.699219 L 8.664062 6.796875 M 8.101562 16.175781 C 8.101562 16.214844 8.109375 16.261719 8.121094 16.277344 C 8.132812 16.296875 8.136719 16.277344 8.128906 16.214844 C 8.113281 16.097656 8.101562 16.082031 8.101562 16.175781 M 12.835938 16.226562 C 12.835938 16.273438 12.839844 16.289062 12.847656 16.261719 C 12.851562 16.238281 12.851562 16.199219 12.847656 16.179688 C 12.839844 16.160156 12.835938 16.179688 12.835938 16.226562 M 3.132812 19.308594 C 3.089844 19.332031 3.054688 19.355469 3.054688 19.363281 C 3.054688 19.367188 3.09375 19.351562 3.140625 19.328125 C 3.1875 19.304688 3.222656 19.28125 3.222656 19.277344 C 3.222656 19.261719 3.222656 19.261719 3.132812 19.308594 "/>
</g>
</svg>
